<?xml version="1.0" encoding="utf-8"?>
<!-- Generator: Adobe Illustrator 16.0.0, SVG Export Plug-In . SVG Version: 6.00 Build 0)  -->
<!DOCTYPE svg PUBLIC "-//W3C//DTD SVG 1.1//EN" "http://www.w3.org/Graphics/SVG/1.1/DTD/svg11.dtd">
<svg version="1.1" id="Layer_1" xmlns="http://www.w3.org/2000/svg" xmlns:xlink="http://www.w3.org/1999/xlink" x="0px" y="0px"
	 width="200px" height="200px" viewBox="0 0 200 200" enable-background="new 0 0 200 200" xml:space="preserve">
<g>
	<path fill="#020202" d="M100.799,86.894c-10.965,0-19.875,8.91-19.875,19.874c0,10.954,8.922,19.875,19.875,19.875
		s19.875-8.921,19.875-19.875C120.674,95.804,111.752,86.894,100.799,86.894 M108.715,108.931h-5.754v5.753
		c0,1.188-0.973,2.162-2.162,2.162s-2.162-0.974-2.162-2.162v-5.753h-5.752c-1.191,0-2.164-0.973-2.164-2.163
		c0-1.188,0.973-2.162,2.164-2.162h5.752v-5.753c0-1.189,0.973-2.162,2.162-2.162s2.162,0.973,2.162,2.162v5.753h5.754
		c1.199,0,2.162,0.974,2.162,2.162C110.877,107.958,109.902,108.931,108.715,108.931"/>
	<path d="M127.307,45.439h-12.684c-1.229-4.257-4.252-7.767-8.279-9.614c-4.029-1.846-8.66-1.846-12.689,0
		c-4.027,1.848-7.049,5.357-8.277,9.614H72.693c-0.824,0-1.492,0.669-1.492,1.493v4.178h-6.416c-3.957,0-7.754,1.572-10.553,4.371
		c-2.799,2.797-4.369,6.593-4.369,10.551v84.606c0,3.957,1.57,7.753,4.369,10.551c2.799,2.799,6.596,4.37,10.553,4.37h70.43
		c3.957,0,7.754-1.571,10.551-4.37c2.799-2.798,4.371-6.594,4.371-10.551V66.032c0-3.958-1.572-7.754-4.371-10.551
		c-2.797-2.799-6.594-4.371-10.551-4.371h-6.416v-4.178c0-0.395-0.158-0.775-0.438-1.055
		C128.082,45.598,127.703,45.439,127.307,45.439z M72.693,71.552h54.613c0.396,0,0.775-0.156,1.055-0.437s0.438-0.659,0.438-1.054
		v-5.223h4.475v83.858H66.725V64.839h4.477v5.223c0,0.395,0.156,0.773,0.436,1.054c0.281,0.28,0.66,0.437,1.055,0.437H72.693z
		 M74.186,48.425H86.57c0.721,0.014,1.348-0.488,1.492-1.193c0.729-3.748,3.162-6.943,6.582-8.636c3.422-1.695,7.438-1.695,10.859,0
		c3.422,1.692,5.855,4.888,6.582,8.636c0.143,0.705,0.771,1.207,1.492,1.193h12.236v20.144H74.186V48.425z M135.215,54.095
		c3.166,0,6.203,1.257,8.441,3.496c2.238,2.238,3.496,5.274,3.496,8.441v84.605c0,3.167-1.258,6.203-3.496,8.441
		c-2.238,2.239-5.275,3.496-8.441,3.496h-70.43c-3.166,0-6.203-1.257-8.441-3.496c-2.238-2.238-3.496-5.274-3.496-8.441V66.032
		c0-3.167,1.258-6.203,3.496-8.441c2.238-2.239,5.275-3.496,8.441-3.496h6.416v7.76h-5.969c-0.824,0-1.49,0.668-1.49,1.491v86.844
		c0,0.396,0.156,0.776,0.436,1.056c0.279,0.28,0.66,0.438,1.055,0.438h69.535c0.396,0,0.775-0.157,1.055-0.438
		c0.279-0.279,0.438-0.66,0.438-1.056V63.346c0-0.396-0.158-0.774-0.438-1.054c-0.279-0.28-0.658-0.438-1.055-0.438h-5.969v-7.76
		H135.215z"/>
	<path fill="none" stroke="#000000" stroke-width="4" stroke-miterlimit="10" d="M127.307,45.439h-12.684
		c-1.229-4.257-4.252-7.767-8.279-9.614c-4.029-1.846-8.66-1.846-12.689,0c-4.027,1.848-7.049,5.357-8.277,9.614H72.693
		c-0.824,0-1.492,0.669-1.492,1.493v4.178h-6.416c-3.957,0-7.754,1.572-10.553,4.371c-2.799,2.797-4.369,6.593-4.369,10.551v84.606
		c0,3.957,1.57,7.753,4.369,10.551c2.799,2.799,6.596,4.37,10.553,4.37h70.43c3.957,0,7.754-1.571,10.551-4.37
		c2.799-2.798,4.371-6.594,4.371-10.551V66.032c0-3.958-1.572-7.754-4.371-10.551c-2.797-2.799-6.594-4.371-10.551-4.371h-6.416
		v-4.178c0-0.395-0.158-0.775-0.438-1.055C128.082,45.598,127.703,45.439,127.307,45.439z M72.693,71.552h54.613
		c0.396,0,0.775-0.156,1.055-0.437s0.438-0.659,0.438-1.054v-5.223h4.475v83.858H66.725V64.839h4.477v5.223
		c0,0.395,0.156,0.773,0.436,1.054c0.281,0.28,0.66,0.437,1.055,0.437H72.693z M74.186,48.425H86.57
		c0.721,0.014,1.348-0.488,1.492-1.193c0.729-3.748,3.162-6.943,6.582-8.636c3.422-1.695,7.438-1.695,10.859,0
		c3.422,1.692,5.855,4.888,6.582,8.636c0.143,0.705,0.771,1.207,1.492,1.193h12.236v20.144H74.186V48.425z M135.215,54.095
		c3.166,0,6.203,1.257,8.441,3.496c2.238,2.238,3.496,5.274,3.496,8.441v84.605c0,3.167-1.258,6.203-3.496,8.441
		c-2.238,2.239-5.275,3.496-8.441,3.496h-70.43c-3.166,0-6.203-1.257-8.441-3.496c-2.238-2.238-3.496-5.274-3.496-8.441V66.032
		c0-3.167,1.258-6.203,3.496-8.441c2.238-2.239,5.275-3.496,8.441-3.496h6.416v7.76h-5.969c-0.824,0-1.49,0.668-1.49,1.491v86.844
		c0,0.396,0.156,0.776,0.436,1.056c0.279,0.28,0.66,0.438,1.055,0.438h69.535c0.396,0,0.775-0.157,1.055-0.438
		c0.279-0.279,0.438-0.66,0.438-1.056V63.346c0-0.396-0.158-0.774-0.438-1.054c-0.279-0.28-0.658-0.438-1.055-0.438h-5.969v-7.76
		H135.215z"/>
</g>
</svg>
