<?xml version="1.0" encoding="utf-8"?>
<!-- Generator: Adobe Illustrator 16.0.0, SVG Export Plug-In . SVG Version: 6.00 Build 0)  -->
<!DOCTYPE svg PUBLIC "-//W3C//DTD SVG 1.1//EN" "http://www.w3.org/Graphics/SVG/1.1/DTD/svg11.dtd">
<svg version="1.1" id="Layer_1" xmlns="http://www.w3.org/2000/svg" xmlns:xlink="http://www.w3.org/1999/xlink" x="0px" y="0px"
	 width="200px" height="200px" viewBox="0 0 200 200" enable-background="new 0 0 200 200" xml:space="preserve">
<g>
	<path fill="#020202" d="M100,60.316c-15.018,0-27.223,12.205-27.223,27.224c0,15.003,12.219,27.224,27.223,27.224
		s27.223-12.221,27.223-27.224C127.223,72.521,115.004,60.316,100,60.316 M110.842,90.502h-7.879v7.881
		c0,1.629-1.333,2.961-2.963,2.961c-1.629,0-2.963-1.332-2.963-2.961v-7.881h-7.879c-1.629,0-2.963-1.333-2.963-2.962
		s1.334-2.962,2.963-2.962h7.879v-7.88c0-1.629,1.334-2.962,2.963-2.962c1.63,0,2.963,1.333,2.963,2.962v7.88h7.879
		c1.645,0,2.962,1.333,2.962,2.962S112.471,90.502,110.842,90.502"/>
	<path fill="#020202" d="M163.875,40.117H36.125c-2.205,0-3.992,1.787-3.992,3.992v83.836c0,2.205,1.787,3.992,3.992,3.992h59.883
		v19.961H80.039c-2.203,0-3.992,1.787-3.992,3.991c0,2.205,1.789,3.993,3.992,3.993h39.922c2.205,0,3.992-1.788,3.992-3.993
		c0-2.204-1.787-3.991-3.992-3.991h-15.968v-19.961h59.882c2.205,0,3.992-1.787,3.992-3.992V44.109
		C167.867,41.904,166.08,40.117,163.875,40.117 M159.883,123.953H40.117V48.102h119.766V123.953z"/>
</g>
</svg>
