<?xml version="1.0" encoding="utf-8"?>
<!-- Generator: Adobe Illustrator 16.0.0, SVG Export Plug-In . SVG Version: 6.00 Build 0)  -->
<!DOCTYPE svg PUBLIC "-//W3C//DTD SVG 1.1//EN" "http://www.w3.org/Graphics/SVG/1.1/DTD/svg11.dtd">
<svg version="1.1" id="Layer_1" xmlns="http://www.w3.org/2000/svg" xmlns:xlink="http://www.w3.org/1999/xlink" x="0px" y="0px"
	 width="200px" height="200px" viewBox="0 0 200 200" enable-background="new 0 0 200 200" xml:space="preserve">
<g>
	<path d="M38.018,42.523c-1.557-0.022-2.99,1.391-2.99,2.948c0,1.559,1.434,2.972,2.99,2.949h4.424v73.73h-4.424
		c-1.557-0.023-2.99,1.39-2.99,2.948s1.434,2.972,2.99,2.949h58.984v10.092l-23.594,13.87c-1.332,0.776-1.842,2.69-1.07,4.025
		c0.77,1.335,2.68,1.854,4.02,1.09l23.594-13.87l23.594,13.87c1.338,0.764,3.25,0.245,4.02-1.09s0.26-3.249-1.072-4.025
		l-23.592-13.87v-10.092h58.982c1.545,0.072,3.016-1.267,3.088-2.811s-1.268-3.016-2.811-3.087c-0.092-0.005-0.186-0.005-0.277,0
		h-4.422v-73.73h4.422c1.545,0.072,3.016-1.267,3.088-2.811s-1.268-3.016-2.811-3.087c-0.092-0.006-0.186-0.006-0.277,0H38.018z
		 M48.34,48.421h103.221v73.73H48.34V48.421z M123.221,57.222c-1.449,0.16-2.658,1.538-2.625,2.996v50.136
		c-0.023,1.559,1.391,2.991,2.949,2.991c1.557,0,2.971-1.433,2.947-2.991V60.218C126.529,58.545,124.885,57.039,123.221,57.222
		 M107.002,71.968c-1.449,0.16-2.658,1.538-2.627,2.996v35.39c-0.023,1.559,1.391,2.991,2.949,2.991s2.971-1.433,2.949-2.991v-35.39
		C110.309,73.291,108.664,71.785,107.002,71.968 M90.779,86.714c-1.447,0.16-2.656,1.538-2.625,2.996v20.644
		c-0.021,1.559,1.391,2.991,2.949,2.991c1.557,0,2.971-1.433,2.949-2.991V89.71C94.088,88.037,92.443,86.531,90.779,86.714
		 M74.561,98.511c-1.449,0.159-2.658,1.538-2.627,2.995v8.848c-0.023,1.559,1.391,2.991,2.949,2.991s2.971-1.433,2.949-2.991v-8.848
		C77.867,99.833,76.223,98.328,74.561,98.511"/>
	<path fill="none" stroke="#000000" stroke-width="4" stroke-miterlimit="10" d="M38.018,42.523c-1.557-0.022-2.99,1.391-2.99,2.948
		c0,1.559,1.434,2.972,2.99,2.949h4.424v73.73h-4.424c-1.557-0.023-2.99,1.39-2.99,2.948s1.434,2.972,2.99,2.949h58.984v10.092
		l-23.594,13.87c-1.332,0.776-1.842,2.69-1.07,4.025c0.77,1.335,2.68,1.854,4.02,1.09l23.594-13.87l23.594,13.87
		c1.338,0.764,3.25,0.245,4.02-1.09s0.26-3.249-1.072-4.025l-23.592-13.87v-10.092h58.982c1.545,0.072,3.016-1.267,3.088-2.811
		s-1.268-3.016-2.811-3.087c-0.092-0.005-0.186-0.005-0.277,0h-4.422v-73.73h4.422c1.545,0.072,3.016-1.267,3.088-2.811
		s-1.268-3.016-2.811-3.087c-0.092-0.006-0.186-0.006-0.277,0H38.018z M48.34,48.421h103.221v73.73H48.34V48.421z M123.221,57.222
		c-1.449,0.16-2.658,1.538-2.625,2.996v50.136c-0.023,1.559,1.391,2.991,2.949,2.991c1.557,0,2.971-1.433,2.947-2.991V60.218
		C126.529,58.545,124.885,57.039,123.221,57.222z M107.002,71.968c-1.449,0.16-2.658,1.538-2.627,2.996v35.39
		c-0.023,1.559,1.391,2.991,2.949,2.991s2.971-1.433,2.949-2.991v-35.39C110.309,73.291,108.664,71.785,107.002,71.968z
		 M90.779,86.714c-1.447,0.16-2.656,1.538-2.625,2.996v20.644c-0.021,1.559,1.391,2.991,2.949,2.991
		c1.557,0,2.971-1.433,2.949-2.991V89.71C94.088,88.037,92.443,86.531,90.779,86.714z M74.561,98.511
		c-1.449,0.159-2.658,1.538-2.627,2.995v8.848c-0.023,1.559,1.391,2.991,2.949,2.991s2.971-1.433,2.949-2.991v-8.848
		C77.867,99.833,76.223,98.328,74.561,98.511z"/>
</g>
</svg>
