<?xml version="1.0" encoding="utf-8"?>
<!-- Generator: Adobe Illustrator 16.0.0, SVG Export Plug-In . SVG Version: 6.00 Build 0)  -->
<!DOCTYPE svg PUBLIC "-//W3C//DTD SVG 1.1//EN" "http://www.w3.org/Graphics/SVG/1.1/DTD/svg11.dtd">
<svg version="1.1" id="Layer_1" xmlns="http://www.w3.org/2000/svg" xmlns:xlink="http://www.w3.org/1999/xlink" x="0px" y="0px"
	 width="200px" height="200px" viewBox="0 0 200 200" enable-background="new 0 0 200 200" xml:space="preserve">
<path fill="#020202" d="M131.301,82.4C138.7,87.701,144.801,94.8,149,103c-9.1,18.2-27.6,30.6-48.999,30.6c-6,0-11.801-1-17.1-2.8
	l7.5-7.5c3.199,0.7,6.4,1.1,9.699,1.1c8.6,0,16.899-2.399,24.2-7.1c5.8-3.7,10.6-8.6,14.3-14.4c-3.5-5.6-8.2-10.399-13.7-14
	L131.301,82.4z M100.001,120.9c-2.199,0-4.301-0.3-6.301-0.8l30-30c0.5,2,0.8,4.101,0.8,6.3C124.5,109.9,113.5,120.9,100.001,120.9
	 M142.9,54.1h-5.1l-21,21c-5.301-1.7-10.9-2.6-16.7-2.6c-21.4,0-39.9,12.399-49,30.6c4.1,8.2,10.1,15.2,17.301,20.4l-17.4,17.3v5.1
	h5.1l86.8-86.699V54.1z M90.802,84.1c4.6,0,8.398,3.4,9.1,7.8l-10.5,10.5c-4.4-0.699-7.801-4.5-7.801-9.1
	C81.601,88.201,85.7,84.1,90.802,84.1 M61.501,103.1c3.699-5.8,8.5-10.7,14.301-14.399c0.398-0.2,0.799-0.5,1.1-0.7
	c-1,2.6-1.5,5.399-1.5,8.399c0,5.601,1.9,10.801,5,14.9l-5.6,5.6C69.601,113.3,65.001,108.6,61.501,103.1"/>
</svg>
