<?xml version="1.0" encoding="utf-8"?>
<!-- Generator: Adobe Illustrator 16.0.0, SVG Export Plug-In . SVG Version: 6.00 Build 0)  -->
<!DOCTYPE svg PUBLIC "-//W3C//DTD SVG 1.1//EN" "http://www.w3.org/Graphics/SVG/1.1/DTD/svg11.dtd">
<svg version="1.1" id="Layer_1" xmlns="http://www.w3.org/2000/svg" xmlns:xlink="http://www.w3.org/1999/xlink" x="0px" y="0px"
	 width="200px" height="200px" viewBox="0 0 200 200" enable-background="new 0 0 200 200" xml:space="preserve">
<g>
	<path fill="#020202" d="M108.401,100.043c-5.092-0.297-8.979-4.664-8.682-9.756c0.245-4.205,3.271-7.58,7.185-8.463
		c-2.15-0.82-4.471-1.288-6.904-1.288c-10.732,0-19.464,8.731-19.464,19.463c0,10.732,8.731,19.464,19.464,19.464
		s19.464-8.731,19.464-19.464c0-2.621-0.528-5.12-1.472-7.404C117.123,97.063,113.071,100.315,108.401,100.043"/>
	<path fill="none" stroke="#020202" stroke-width="7" stroke-miterlimit="10" d="M100,68.915C72.948,68.915,51.018,100,51.018,100
		S72.948,131.085,100,131.085S148.982,100,148.982,100S127.052,68.915,100,68.915z"/>
	<path fill="none" stroke="#020202" stroke-width="7" stroke-miterlimit="10" d="M100,120.296c-11.191,0-20.296-9.104-20.296-20.296
		c0-11.192,9.104-20.296,20.296-20.296s20.296,9.104,20.296,20.296C120.296,111.191,111.191,120.296,100,120.296z"/>
</g>
</svg>
