<?xml version="1.0" encoding="utf-8"?>
<!-- Generator: Adobe Illustrator 16.0.0, SVG Export Plug-In . SVG Version: 6.00 Build 0)  -->
<!DOCTYPE svg PUBLIC "-//W3C//DTD SVG 1.1//EN" "http://www.w3.org/Graphics/SVG/1.1/DTD/svg11.dtd">
<svg version="1.1" id="Layer_1" xmlns="http://www.w3.org/2000/svg" xmlns:xlink="http://www.w3.org/1999/xlink" x="0px" y="0px"
	 width="200px" height="200px" viewBox="0 0 200 200" enable-background="new 0 0 200 200" xml:space="preserve">
<g>
	<path d="M80.73,27.696C80.578,18,88.344,9.988,98.039,9.834c9.697-0.151,17.709,7.612,17.861,17.308
		c0.152,9.696-7.611,17.71-17.309,17.862C88.896,45.155,80.883,37.394,80.73,27.696 M111.068,27.219
		c-0.111-7.031-5.922-12.661-12.951-12.549c-7.033,0.107-12.664,5.918-12.555,12.949c0.109,7.03,5.92,12.664,12.953,12.555
		C105.549,40.061,111.18,34.25,111.068,27.219"/>
	<path fill="none" stroke="#000000" stroke-width="2" stroke-miterlimit="10" d="M80.73,27.696C80.578,18,88.344,9.988,98.039,9.834
		c9.697-0.151,17.709,7.612,17.861,17.308c0.152,9.696-7.611,17.71-17.309,17.862C88.896,45.155,80.883,37.394,80.73,27.696z
		 M111.068,27.219c-0.111-7.031-5.922-12.661-12.951-12.549c-7.033,0.107-12.664,5.918-12.555,12.949
		c0.109,7.03,5.92,12.664,12.953,12.555C105.549,40.061,111.18,34.25,111.068,27.219z"/>
	<rect x="98.211" y="77.889" transform="matrix(0.0156 0.9999 -0.9999 0.0156 177.9001 -20.0848)" width="1.878" height="4.835"/>
	
		<rect x="97.451" y="69.832" transform="matrix(0.0152 0.9999 -0.9999 0.0152 169.7996 -27.8973)" fill="none" stroke="#000000" stroke-width="4" stroke-miterlimit="10" width="3.221" height="4.833"/>
	
		<rect x="97.347" y="59.807" transform="matrix(0.0151 0.9999 -0.9999 0.0151 159.6753 -37.6676)" fill="none" stroke="#000000" stroke-width="4" stroke-miterlimit="10" width="3.223" height="4.831"/>
	
		<rect x="97.246" y="50.088" transform="matrix(0.0158 0.9999 -0.9999 0.0158 149.7972 -47.1685)" fill="none" stroke="#000000" stroke-width="4" stroke-miterlimit="10" width="3.223" height="4.833"/>
	<path d="M80.021,169.957l-1.113-70.471c-0.178-11.323,8.889-20.682,20.211-20.86s20.682,8.889,20.861,20.213l1.111,70.47
		c0.178,11.322-8.891,20.68-20.211,20.857c-11.322,0.179-20.682-8.889-20.861-20.21L80.021,169.957z M116.762,98.889
		c-0.15-9.547-8.041-17.191-17.588-17.043c-9.543,0.152-17.193,8.041-17.041,17.59l1.111,70.469
		c0.15,9.549,8.039,17.195,17.588,17.043c9.549-0.151,17.195-8.039,17.045-17.59L116.762,98.889z"/>
	<path fill="none" stroke="#000000" stroke-width="4" stroke-miterlimit="10" d="M80.021,169.957l-1.113-70.471
		c-0.178-11.323,8.889-20.682,20.211-20.86s20.682,8.889,20.861,20.213l1.111,70.47c0.178,11.322-8.891,20.68-20.211,20.857
		c-11.322,0.179-20.682-8.889-20.861-20.21L80.021,169.957z M116.762,98.889c-0.15-9.547-8.041-17.191-17.588-17.043
		c-9.543,0.152-17.193,8.041-17.041,17.59l1.111,70.469c0.15,9.549,8.039,17.195,17.588,17.043
		c9.549-0.151,17.195-8.039,17.045-17.59L116.762,98.889z"/>
</g>
</svg>
