<?xml version="1.0" encoding="utf-8"?>
<!-- Generator: Adobe Illustrator 16.0.0, SVG Export Plug-In . SVG Version: 6.00 Build 0)  -->
<!DOCTYPE svg PUBLIC "-//W3C//DTD SVG 1.1//EN" "http://www.w3.org/Graphics/SVG/1.1/DTD/svg11.dtd">
<svg version="1.1" id="Layer_1" xmlns="http://www.w3.org/2000/svg" xmlns:xlink="http://www.w3.org/1999/xlink" x="0px" y="0px"
	 width="200px" height="200px" viewBox="0 0 200 200" enable-background="new 0 0 200 200" xml:space="preserve">
<g>
	<path fill="#020202" d="M86.094,102.036l18.928-16.209l52.764,64.946l7.629,13.928c0,0-2.914,7.735-4.467,8.996
		s-10.072,6.284-10.072,6.284l-7.504-5.825L86.094,102.036z"/>
	<path fill="#020202" d="M61.803,34.736c-0.91,1.824-1.133,3.915-0.627,5.889c0.506,1.977,1.707,3.702,3.381,4.864l4.131,2.867
		c0.436,0.301,0.775,0.722,0.979,1.211l1.918,4.637c0.783,1.882,2.217,3.421,4.043,4.33c1.824,0.911,3.916,1.135,5.891,0.628
		c1.975-0.505,3.701-1.708,4.865-3.382l2.852-4.13c0.301-0.436,0.721-0.775,1.211-0.979l-0.002-0.001l4.641-1.931
		c1.883-0.78,3.42-2.218,4.33-4.042c0.912-1.823,1.135-3.915,0.629-5.892c-0.508-1.976-1.707-3.703-3.385-4.862h0.002l-4.129-2.852
		c-0.438-0.303-0.777-0.722-0.98-1.211l-1.918-4.64c-0.783-1.884-2.219-3.419-4.043-4.33c-1.826-0.909-3.916-1.132-5.891-0.627
		c-1.975,0.507-3.703,1.705-4.865,3.382l-2.852,4.132c-0.303,0.435-0.721,0.773-1.211,0.978l-4.641,1.918
		C64.25,31.476,62.713,32.91,61.803,34.736z M68.658,39.579c-0.385-0.269-0.592-0.726-0.541-1.195
		c0.051-0.466,0.354-0.867,0.789-1.046l4.639-1.933c1.758-0.734,3.266-1.956,4.35-3.521h-0.002l2.863-4.128
		c0.27-0.388,0.729-0.598,1.197-0.548c0.467,0.05,0.869,0.352,1.049,0.787l1.932,4.638c0.732,1.761,1.953,3.273,3.52,4.358
		l4.129,2.866c0.387,0.268,0.596,0.726,0.547,1.193c-0.051,0.467-0.352,0.869-0.785,1.049l-4.641,1.931
		c-1.756,0.734-3.27,1.956-4.357,3.52l-2.854,4.131c-0.27,0.388-0.727,0.598-1.195,0.548c-0.467-0.05-0.871-0.351-1.051-0.786
		l-1.932-4.641c-0.73-1.758-1.953-3.272-3.518-4.358l-4.139-2.862V39.579z"/>
	<path fill="#020202" d="M35.355,63.594c-0.785,1.577-0.979,3.386-0.541,5.091c0.438,1.707,1.471,3.199,2.92,4.205l2.449,1.696
		l1.141,2.752c0.678,1.625,1.92,2.954,3.496,3.74c1.578,0.783,3.383,0.976,5.088,0.542c1.707-0.438,3.201-1.475,4.205-2.92
		l1.697-2.451l2.752-1.143c1.627-0.678,2.953-1.919,3.74-3.496c0.785-1.574,0.979-3.383,0.541-5.09
		c-0.438-1.705-1.471-3.197-2.92-4.203l-2.449-1.698l-1.139-2.752c-0.68-1.626-1.92-2.953-3.496-3.74
		c-1.578-0.786-3.383-0.979-5.09-0.542c-1.709,0.438-3.201,1.474-4.205,2.92l-1.697,2.45l-2.752,1.146
		C37.469,60.779,36.143,62.02,35.355,63.594z M41.463,67.512c-0.232-0.165-0.359-0.445-0.328-0.729
		c0.029-0.284,0.213-0.531,0.475-0.645l2.855-1.188c1.084-0.451,2.016-1.203,2.684-2.166l1.764-2.544
		c0.166-0.237,0.447-0.366,0.734-0.336c0.289,0.031,0.535,0.217,0.648,0.482h-0.002l1.189,2.858
		c0.453,1.083,1.203,2.015,2.168,2.683l2.541,1.764c0.236,0.164,0.367,0.446,0.336,0.734s-0.217,0.537-0.482,0.648l-2.855,1.188
		c-1.084,0.453-2.014,1.204-2.686,2.167l0.002,0.002l-1.764,2.541c-0.166,0.236-0.447,0.366-0.734,0.335
		c-0.289-0.03-0.535-0.216-0.648-0.482v-0.002l-1.189-2.854c-0.449-1.082-1.201-2.013-2.166-2.685l-2.541-1.763V67.512z"/>
	<path fill="none" stroke="#020202" stroke-width="9" stroke-miterlimit="10" d="M142.516,173.21
		c4.178,5.143,11.736,5.926,16.879,1.747l1.553-1.261c5.145-4.18,5.926-11.738,1.748-16.881L93.73,71.927
		C89.551,66.783,81.992,66,76.85,70.18l-1.553,1.261c-5.145,4.179-5.926,11.736-1.748,16.881L142.516,173.21z"/>
</g>
</svg>
