<?xml version="1.0" encoding="utf-8"?>
<!-- Generator: Adobe Illustrator 16.0.0, SVG Export Plug-In . SVG Version: 6.00 Build 0)  -->
<!DOCTYPE svg PUBLIC "-//W3C//DTD SVG 1.1//EN" "http://www.w3.org/Graphics/SVG/1.1/DTD/svg11.dtd">
<svg version="1.1" id="Layer_1" xmlns="http://www.w3.org/2000/svg" xmlns:xlink="http://www.w3.org/1999/xlink" x="0px" y="0px"
	 width="200px" height="200px" viewBox="0 0 200 200" enable-background="new 0 0 200 200" xml:space="preserve">
<g>
	<path fill="none" stroke="#020202" stroke-width="7" stroke-miterlimit="10" d="M39.25,43.696c-2.455,0-4.443,1.989-4.443,4.444
		v14.817c0,2.455,1.988,4.445,4.443,4.445h121.498c2.455,0,4.445-1.99,4.445-4.445V48.141c0-2.455-1.99-4.444-4.445-4.444H39.25z"/>
	<path fill="#020202" d="M87.109,99.321H42.324c-3.863,0-7.012-3.118-7.016-6.952V79.388c0.002-3.837,3.148-6.958,7.016-6.958
		h44.785c3.867,0,7.014,3.121,7.014,6.958v12.979C94.121,96.202,90.973,99.321,87.109,99.321 M42.324,78.558
		c-0.488,0-0.887,0.372-0.887,0.83v12.979c0,0.455,0.398,0.828,0.887,0.828h44.785c0.488,0,0.887-0.372,0.887-0.83V79.388
		c0-0.458-0.398-0.83-0.887-0.83H42.324z"/>
	<path fill="#020202" d="M128.281,73.33c-1.32-0.05-2.594,0.487-3.479,1.471l-19.219,21.387c-4.201,4.418,2.664,10.589,6.611,5.94
		l11.467-12.762v62.429c-0.084,6.012,8.977,6.012,8.891,0V89.366l11.469,12.762c3.951,4.56,10.725-1.524,6.611-5.94l-19.217-21.387
		C130.613,73.907,129.482,73.376,128.281,73.33"/>
	<path fill="#020202" d="M87.109,127.69H42.324c-3.863,0-7.01-2.95-7.016-6.575v-11.73c0.002-3.629,3.148-6.581,7.016-6.581h44.785
		c3.867,0,7.014,2.953,7.014,6.581v11.727C94.121,124.74,90.973,127.69,87.109,127.69 M42.324,108.933
		c-0.582,0-0.887,0.337-0.887,0.454v11.725c0,0.114,0.305,0.452,0.887,0.452h44.785c0.582,0,0.887-0.338,0.887-0.454v-11.725
		c0-0.115-0.305-0.452-0.887-0.452H42.324z"/>
	<path fill="none" stroke="#020202" stroke-width="7" stroke-miterlimit="10" d="M39.25,132.599c-2.455,0-4.443,1.99-4.443,4.445
		v14.817c0.002,2.454,1.99,4.441,4.443,4.441h50.377c2.455,0,4.443-1.987,4.445-4.441v-14.817c0-2.455-1.99-4.445-4.445-4.445H39.25
		z"/>
</g>
</svg>
