<?xml version="1.0" encoding="utf-8"?>
<!-- Generator: Adobe Illustrator 16.0.0, SVG Export Plug-In . SVG Version: 6.00 Build 0)  -->
<!DOCTYPE svg PUBLIC "-//W3C//DTD SVG 1.1//EN" "http://www.w3.org/Graphics/SVG/1.1/DTD/svg11.dtd">
<svg version="1.1" id="Layer_1" xmlns="http://www.w3.org/2000/svg" xmlns:xlink="http://www.w3.org/1999/xlink" x="0px" y="0px"
	 width="200px" height="200px" viewBox="0 0 200 200" enable-background="new 0 0 200 200" xml:space="preserve">
<g>
	<path fill="none" stroke="#000000" stroke-width="7" stroke-miterlimit="10" d="M148.42,125.055c0,2.371,1.924,4.295,4.296,4.295
		h16.408c2.373,0,4.297-1.924,4.297-4.295V85.971c0-2.371-1.924-4.295-4.297-4.295h-16.408c-2.372,0-4.296,1.924-4.296,4.295
		V125.055z"/>
	<path fill="none" stroke="#000000" stroke-width="7" stroke-miterlimit="10" d="M148.42,121.309H98.563
		c0,0-9.976,0.607-9.976-10.225c0,0-0.549-10.508,9.976-10.508h49.191"/>
	<path fill="none" stroke="#000000" stroke-width="7" stroke-miterlimit="10" d="M106.254,100.576l38.833-38.965
		c0,0,7.609-6.209,2.555-13.451c-5.055-7.244-14.054-3.561-18.721,1.598L64.087,117.25l-4.666,18.5l17.666-6.4l12.577-12.975"/>
	<path fill="none" stroke="#000000" stroke-width="7" stroke-miterlimit="10" d="M122.715,56.219L78.254,70.75
		c0,0-6.334,3-6.334,9.166v29.939"/>
	<path fill="none" stroke="#000000" stroke-width="7" stroke-miterlimit="10" d="M125.979,52.82v-8.713c0,0,0.773-5.357-5.56-5.357
		h-86.5c0,0-7.333,0.236-7.333,7.035V153.75c0,0-0.501,7.5,6.333,7.5h88.167c0,0,6.167-0.668,6.167-5.5v-34.436"/>
	<line fill="none" stroke="#000000" stroke-width="7" stroke-miterlimit="10" x1="149.375" y1="83.273" x2="133.273" y2="73.465"/>
</g>
</svg>
