<?xml version="1.0" encoding="utf-8"?>
<!-- Generator: Adobe Illustrator 16.0.0, SVG Export Plug-In . SVG Version: 6.00 Build 0)  -->
<!DOCTYPE svg PUBLIC "-//W3C//DTD SVG 1.1//EN" "http://www.w3.org/Graphics/SVG/1.1/DTD/svg11.dtd">
<svg version="1.1" id="Layer_1" xmlns="http://www.w3.org/2000/svg" xmlns:xlink="http://www.w3.org/1999/xlink" x="0px" y="0px"
	 width="200px" height="200px" viewBox="0 0 200 200" enable-background="new 0 0 200 200" xml:space="preserve">
<g>
	<path fill="none" stroke="#020202" stroke-width="9" stroke-miterlimit="10" d="M65.504,136.853h-27.6
		c-1.996,0-3.614-1.619-3.614-3.616V54.843c0-1.724,1.397-3.12,3.12-3.12h84.847"/>
	<path fill="none" stroke="#020202" stroke-width="9" stroke-miterlimit="10" d="M159.146,51.723h2.556
		c1.723,0,3.12,1.396,3.12,3.12v78.89c0,1.723-1.397,3.12-3.12,3.12H130.77"/>
	
		<line fill="none" stroke="#020202" stroke-width="9" stroke-miterlimit="10" x1="147.797" y1="136.853" x2="147.797" y2="108.476"/>
	<line fill="none" stroke="#020202" stroke-width="9" stroke-miterlimit="10" x1="147.797" y1="80.099" x2="147.797" y2="65.912"/>
	<path fill="#020202" d="M153.472,94.288c0,3.134-2.541,5.675-5.675,5.675c-3.135,0-5.676-2.541-5.676-5.675
		s2.541-5.675,5.676-5.675C150.931,88.613,153.472,91.154,153.472,94.288"/>
	<path fill="none" stroke="#020202" stroke-width="9" stroke-miterlimit="10" d="M88.205,102.801V80.1
		c0-1.505-0.598-2.95-1.662-4.015c-1.064-1.063-2.508-1.661-4.013-1.661s-2.95,0.598-4.015,1.661
		c-1.063,1.064-1.662,2.51-1.662,4.015v34.052h-3.489c-1.824-0.002-3.538,0.872-4.606,2.351c-1.067,1.48-1.359,3.382-0.785,5.111
		l8.881,26.59h45.404v-39.728c0-1.505-0.599-2.949-1.662-4.014c-1.064-1.063-2.508-1.661-4.014-1.661H88.205z"/>
	<line fill="none" stroke="#020202" stroke-width="9" stroke-miterlimit="10" x1="99.557" y1="102.801" x2="99.557" y2="114.152"/>
	
		<line fill="none" stroke="#020202" stroke-width="9" stroke-miterlimit="10" x1="110.906" y1="102.801" x2="110.906" y2="114.152"/>
	<line fill="none" stroke="#020202" stroke-width="9" stroke-miterlimit="10" x1="88.205" y1="102.801" x2="88.205" y2="114.152"/>
	<path fill="none" stroke="#020202" stroke-width="9" stroke-miterlimit="10" d="M76.854,148.204h45.403v26.241
		c0,1.179-0.957,2.136-2.137,2.136H78.99c-1.18,0-2.136-0.957-2.136-2.136V148.204z"/>
	<path fill="#020202" d="M107.86,89.3h-8.03v-8.03l56.186-56.186c1.064-1.066,2.509-1.665,4.015-1.665s2.95,0.599,4.017,1.665
		c1.064,1.064,1.664,2.509,1.664,4.016c0,1.506-0.6,2.95-1.664,4.015L107.86,89.3z"/>
</g>
</svg>
