<?xml version="1.0" encoding="utf-8"?>
<!-- Generator: Adobe Illustrator 16.0.0, SVG Export Plug-In . SVG Version: 6.00 Build 0)  -->
<!DOCTYPE svg PUBLIC "-//W3C//DTD SVG 1.1//EN" "http://www.w3.org/Graphics/SVG/1.1/DTD/svg11.dtd">
<svg version="1.1" id="Layer_1" xmlns="http://www.w3.org/2000/svg" xmlns:xlink="http://www.w3.org/1999/xlink" x="0px" y="0px"
	 width="200px" height="200px" viewBox="0 0 200 200" enable-background="new 0 0 200 200" xml:space="preserve">
<g>
	<path fill="none" stroke="#020202" stroke-width="7" stroke-miterlimit="10" d="M60.084,79.958H43.98
		c-0.561,0-1.016,0.455-1.016,1.018v78.88c0,0.562,0.455,1.017,1.016,1.017h16.104c0.561,0,1.016-0.455,1.016-1.017v-78.88
		C61.1,80.413,60.645,79.958,60.084,79.958z"/>
	<path fill="none" stroke="#020202" stroke-width="7" stroke-miterlimit="10" d="M156.002,94.722h-16.098
		c-0.563,0-1.018,0.455-1.018,1.018v64.115c0,0.563,0.455,1.018,1.018,1.018h16.098c0.563,0,1.018-0.455,1.018-1.018V95.739
		C157.02,95.177,156.564,94.722,156.002,94.722z"/>
	<path fill="#020202" d="M108.418,164.312H92.314c-2.457,0-4.457-1.998-4.457-4.457v-42.711c0-2.457,2-4.457,4.457-4.457h16.104
		c2.457,0,4.457,2,4.457,4.457v42.711C112.875,162.313,110.875,164.312,108.418,164.312 M94.736,157.433h11.258v-37.867H94.736
		V157.433z"/>
	<line fill="none" stroke="#020202" stroke-width="7" stroke-miterlimit="10" x1="109.947" y1="77.473" x2="134.952" y2="67.865"/>
	<path fill="none" stroke="#020202" stroke-width="7" stroke-miterlimit="10" d="M63.596,57.933
		c1.38,0.345,17.994,11.408,28.165,18.234"/>
	<circle fill="none" stroke="#020202" stroke-width="7" stroke-miterlimit="10" cx="148.526" cy="64.542" r="14.427"/>
	<circle fill="none" stroke="#020202" stroke-width="7" stroke-miterlimit="10" cx="100.308" cy="85.247" r="14.427"/>
	<circle fill="none" stroke="#020202" stroke-width="7" stroke-miterlimit="10" cx="51.474" cy="50.114" r="14.427"/>
</g>
</svg>
