<?xml version="1.0" encoding="utf-8"?>
<!-- Generator: Adobe Illustrator 16.0.0, SVG Export Plug-In . SVG Version: 6.00 Build 0)  -->
<!DOCTYPE svg PUBLIC "-//W3C//DTD SVG 1.1//EN" "http://www.w3.org/Graphics/SVG/1.1/DTD/svg11.dtd">
<svg version="1.1" id="Layer_1" xmlns="http://www.w3.org/2000/svg" xmlns:xlink="http://www.w3.org/1999/xlink" x="0px" y="0px"
	 width="200px" height="200px" viewBox="0 0 200 200" enable-background="new 0 0 200 200" xml:space="preserve">
<g>
	<path fill="#020202" d="M122.423,73.213c5.301,3.797,9.67,8.883,12.678,14.756c-6.52,13.039-19.771,21.922-35.102,21.922
		c-4.297,0-8.451-0.717-12.248-2.006l5.373-5.373c2.293,0.502,4.584,0.787,6.947,0.787c6.162,0,12.107-1.719,17.336-5.086
		c4.154-2.649,7.594-6.16,10.244-10.314c-2.508-4.012-5.875-7.45-9.814-10.029L122.423,73.213z M99.999,100.793
		c-1.574,0-3.078-0.216-4.512-0.574l21.49-21.489c0.359,1.432,0.574,2.937,0.574,4.513
		C117.552,92.912,109.671,100.793,99.999,100.793 M130.731,52.94h-3.654l-15.043,15.043c-3.797-1.218-7.807-1.862-11.963-1.862
		c-15.33,0-28.582,8.883-35.1,21.92c2.936,5.875,7.234,10.889,12.393,14.613l-12.465,12.393v3.654h3.654l62.178-62.107V52.94z
		 M93.409,74.43c3.295,0,6.018,2.437,6.52,5.589l-7.521,7.522c-3.152-0.503-5.588-3.225-5.588-6.52
		C86.819,77.367,89.757,74.43,93.409,74.43 M72.421,88.041c2.65-4.154,6.09-7.664,10.244-10.314
		c0.285-0.145,0.572-0.359,0.789-0.502c-0.719,1.863-1.076,3.867-1.076,6.018c0,4.012,1.361,7.736,3.582,10.674l-4.012,4.012
		C78.224,95.348,74.929,91.981,72.421,88.041"/>
	<path fill="#020202" d="M163.712,40.271H36.29c-2.199,0-3.982,1.781-3.982,3.98v83.621c0,2.199,1.783,3.982,3.982,3.982h59.729
		v19.909H80.091c-2.199,0-3.982,1.783-3.982,3.982c0,2.198,1.783,3.981,3.982,3.981h39.818c2.199,0,3.982-1.783,3.982-3.981
		c0-2.199-1.783-3.982-3.982-3.982h-15.928v-19.909h59.73c2.199,0,3.98-1.783,3.98-3.982V44.252
		C167.692,42.053,165.911,40.271,163.712,40.271 M159.729,123.891H40.271V48.234h119.459V123.891z"/>
</g>
</svg>
