<?xml version="1.0" encoding="utf-8"?>
<!-- Generator: Adobe Illustrator 16.0.0, SVG Export Plug-In . SVG Version: 6.00 Build 0)  -->
<!DOCTYPE svg PUBLIC "-//W3C//DTD SVG 1.1//EN" "http://www.w3.org/Graphics/SVG/1.1/DTD/svg11.dtd">
<svg version="1.1" id="Layer_1" xmlns="http://www.w3.org/2000/svg" xmlns:xlink="http://www.w3.org/1999/xlink" x="0px" y="0px"
	 width="200px" height="200px" viewBox="0 0 200 200" enable-background="new 0 0 200 200" xml:space="preserve">
<g>
	<path fill="#020202" d="M105.977,86.059c-3.621-0.211-6.387-3.318-6.176-6.94c0.176-2.992,2.326-5.394,5.111-6.021
		c-1.529-0.584-3.18-0.918-4.912-0.918c-7.635,0-13.846,6.213-13.846,13.848S92.365,99.874,100,99.874s13.846-6.212,13.846-13.847
		c0-1.865-0.375-3.644-1.047-5.269C112.182,83.938,109.299,86.252,105.977,86.059"/>
	<path fill="#020202" d="M100,60.642c-22.092,0-40.002,25.385-40.002,25.385s17.91,25.386,40.002,25.386s40-25.386,40-25.386
		S122.092,60.642,100,60.642 M100,106.027c-11.027,0-20.002-8.972-20.002-20.001c0-11.028,8.975-20,20.002-20s20,8.972,20,20
		C120,97.056,111.027,106.027,100,106.027"/>
	<path fill="#020202" d="M163.875,40.117H36.125c-2.205,0-3.992,1.787-3.992,3.992v83.836c0,2.205,1.787,3.992,3.992,3.992h59.883
		v19.961H80.039c-2.205,0-3.992,1.787-3.992,3.991c0,2.205,1.787,3.993,3.992,3.993h39.922c2.205,0,3.992-1.788,3.992-3.993
		c0-2.204-1.787-3.991-3.992-3.991h-15.969v-19.961h59.883c2.205,0,3.992-1.787,3.992-3.992V44.109
		C167.867,41.904,166.08,40.117,163.875,40.117 M159.883,123.953H40.117V48.102h119.766V123.953z"/>
</g>
</svg>
