<?xml version="1.0" encoding="utf-8"?>
<!-- Generator: Adobe Illustrator 16.0.0, SVG Export Plug-In . SVG Version: 6.00 Build 0)  -->
<!DOCTYPE svg PUBLIC "-//W3C//DTD SVG 1.1//EN" "http://www.w3.org/Graphics/SVG/1.1/DTD/svg11.dtd">
<svg version="1.1" id="Layer_1" xmlns="http://www.w3.org/2000/svg" xmlns:xlink="http://www.w3.org/1999/xlink" x="0px" y="0px"
	 width="200px" height="200px" viewBox="0 0 200 200" enable-background="new 0 0 200 200" xml:space="preserve">
<g>
	<path fill-rule="evenodd" clip-rule="evenodd" d="M122.766,70.902l-0.949,0.8l-0.961-0.8c-4.979-4.11-10.159-5.131-15.93-3.141
		l-1.99,0.681V36.642c0-2.449-0.479-4.72-1.479-6.949c-2.51-5.62-8.18-9.261-14.45-9.261c-2.439,0-4.77,0.57-6.92,1.681
		c-5.87,3.04-8.86,7.89-8.87,14.39c-0.03,17.28-0.02,34.86,0,51.85c0.01,6.381,0.01,12.74,0.021,19.12l8.56-5.38l-0.02-65.7
		c0-3.14,1.85-5.859,4.729-6.909c0.82-0.311,1.69-0.461,2.561-0.461c2.159,0,4.21,0.95,5.6,2.61c1.12,1.32,1.689,2.92,1.689,4.76
		v56.54l8.58-5.399v-4.88c0-3.82,2.69-6.811,6.53-7.271c2.94-0.36,5.67,1.13,7.061,3.59l19.119-12.029
		C131.116,66.212,126.816,67.532,122.766,70.902z M172.426,104.992c0-3.51-0.01-7.021-0.01-10.53c0-4.37-1.47-8.11-4.38-11.12
		c-3.311-3.42-7.25-5.08-11.76-4.96l-15.61,9.82c0.01,2.42,0.01,4.85,0.01,7.27v2.99h8.58v-4.25c0.01-4.08,3.22-7.28,7.3-7.28
		c4.09,0,7.28,3.2,7.28,7.271c0,3.439,0.01,6.89,0.02,10.34c0.021,8.28,0.04,16.85-0.05,25.28c-0.09,8.939-2.899,17.14-8.34,24.38
		c-5.899,7.84-13.75,13.06-23.34,15.52c-3.35,0.86-6.82,1.28-10.6,1.28c-0.641,0-1.28-0.01-1.931-0.03
		c-9.75-0.359-19.029-2.859-27.58-7.43c-5.46-2.91-10.479-6.64-14.93-11.08l-14.88-14.89l-7.46,4.699
		c2.14,2.141,4.29,4.28,6.439,6.421c0.9,0.909,1.811,1.81,2.71,2.72c3.381,3.38,6.87,6.88,10.44,10.16
		c5.63,5.199,12.43,9.449,20.22,12.649c6.59,2.71,13.49,4.4,20.511,5.04c4.59,0.41,8.59,0.41,12.35-0.01
		c5.9-0.65,11.53-2.3,16.75-4.9c8.71-4.35,15.71-10.739,20.8-19c4.86-7.899,7.36-16.529,7.43-25.649
		C172.456,121.472,172.436,113.092,172.426,104.992z M63.136,105.742c-3.63-3.641-7.26-7.28-10.89-10.91
		c-3.24-3.23-7.01-4.87-11.22-4.87c-1.051,0-2.15,0.1-3.261,0.3c-8.27,1.5-13.75,9-12.75,17.471c0.44,3.649,2.03,6.869,4.75,9.579
		c3.33,3.32,6.66,6.65,9.99,9.98l7.47-4.71l-6.229-6.24c-1.78-1.77-3.561-3.55-5.32-5.34c-2.51-2.54-3-5.9-1.29-8.75
		c1.4-2.36,3.771-3.76,6.34-3.76c1.96,0,3.841,0.819,5.301,2.31c3.229,3.28,6.55,6.58,9.76,9.771c1.359,1.35,2.729,2.71,4.08,4.06
		l7.46-4.689L63.136,105.742z"/>
	<rect x="96.721" y="16.948" transform="matrix(0.5326 0.8463 -0.8463 0.5326 132.5982 -39.1206)" width="9.999" height="167.107"/>
	<line fill="none" x1="71.236" y1="107.472" x2="67.326" y2="109.942"/>
</g>
</svg>
