<?xml version="1.0" encoding="utf-8"?>
<!-- Generator: Adobe Illustrator 16.0.0, SVG Export Plug-In . SVG Version: 6.00 Build 0)  -->
<!DOCTYPE svg PUBLIC "-//W3C//DTD SVG 1.1//EN" "http://www.w3.org/Graphics/SVG/1.1/DTD/svg11.dtd">
<svg version="1.1" id="Layer_1" xmlns="http://www.w3.org/2000/svg" xmlns:xlink="http://www.w3.org/1999/xlink" x="0px" y="0px"
	 width="200px" height="200px" viewBox="0 0 200 200" enable-background="new 0 0 200 200" xml:space="preserve">
<g>
	<path fill="#020202" d="M64.936,140.144c-0.508-0.755-0.967-1.682-1.334-2.822c-2.314-7.212-0.225-35.17,0.023-38.334l0.066-0.862
		l18.424-24.54c0.99-1.317,2.852-1.622,4.158-0.677c1.309,0.946,1.564,2.78,0.574,4.097l-17.373,23.138
		c-0.869,11.625-1.658,30.759-0.211,35.268c0.268,0.828,0.736,1.866,1.451,2.103c0.346,0.112,1.662,0.315,4.576-1.556
		c1.457-3.033,4.102-19.125,5.783-32.813l0.15-1.229l13.683-10.738c1.301-1.021,3.164-0.826,4.162,0.433
		c0.989,1.273,0.75,3.109-0.549,4.13l-11.71,9.19c-0.336,2.621-1.18,9.05-2.213,15.544c-2.893,18.187-4.363,19.178-5.662,20.052
		c-3.92,2.64-7.357,3.503-10.215,2.567C67.559,142.713,66.115,141.893,64.936,140.144"/>
	<path fill="#020202" d="M80.18,143.393l-0.605-3.49c-0.084-0.479-1.957-11.776,5.328-16.063c3.871-2.28,9.864-8.242,13.084-11.447
		c1.024-1.019,1.803-1.793,2.334-2.278c0.219-0.813,0.026-3.096-0.43-4.912c-0.392-1.563,0.578-3.18,2.168-3.609
		c1.59-0.431,3.197,0.483,3.592,2.045c0.742,2.924,1.564,8.194-1.252,10.641c-0.367,0.318-1.244,1.189-2.258,2.2
		c-3.65,3.632-9.762,9.713-14.307,12.387c-1.896,1.118-2.482,3.951-2.586,6.359c3.043-1.049,7.741-2.545,13.455-3.963
		c7.201-1.786,20.279-15.442,25.239-21.141l11.854-36.686l13.64-17.399c1.017-1.3,2.883-1.563,4.169-0.59
		c1.28,0.97,1.503,2.812,0.484,4.11l-12.972,16.551l-11.899,36.823l-0.398,0.463c-1.832,2.134-18.197,20.927-28.816,23.563
		c-9.629,2.388-16.393,5.067-16.459,5.094L80.18,143.393z"/>
	<path fill="#020202" d="M61.391,129.153c-5.615-8.336-8.273-27.421-8.795-31.57l-0.109-0.864l17.496-35.888
		c0.721-1.476,2.498-2.127,3.969-1.453c1.477,0.673,2.084,2.416,1.365,3.89L58.598,97.562c1.342,10.046,4.818,26.272,8.914,29.617
		c1.248,1.025,1.395,2.87,0.33,4.13c-1.064,1.261-2.938,1.455-4.186,0.436C62.854,131.086,62.098,130.205,61.391,129.153"/>
	<path fill="#020202" d="M54.811,121.402c-6.232-9.253-9.209-22.728-9.363-23.442l-0.178-0.822L58.357,61.32
		c0.563-1.537,2.268-2.366,3.805-1.852c1.541,0.518,2.334,2.18,1.771,3.718L51.436,97.391c1.455,6.169,6.025,20.658,12.68,25.441
		c1.309,0.942,1.57,2.773,0.584,4.094c-0.986,1.322-2.846,1.629-4.154,0.688C58.393,126.067,56.482,123.886,54.811,121.402"/>
	<path fill="#020202" d="M45.865,98.942c-0.369-0.549-0.549-1.229-0.461-1.945c0.145-1.201,3.594-29.458,4.645-34.466
		c1.189-5.66,12.844-14.272,16.389-16.778l0.625-0.441l38.252-4.883l7.51-11.039c0.928-1.361,2.774-1.751,4.126-0.871
		c1.357,0.883,1.698,2.699,0.771,4.061l-9.065,13.325l-39.469,5.038C63,55.398,56.318,61.393,55.861,63.579
		c-1,4.764-4.529,33.677-4.564,33.967c-0.197,1.616-1.676,2.801-3.303,2.647C47.09,100.11,46.328,99.629,45.865,98.942"/>
	<path fill="#020202" d="M55.072,171.951l6.17-26.264l4.629-7.579c0.857-1.402,2.684-1.884,4.082-1.071
		c1.396,0.813,1.834,2.607,0.977,4.012l-4.127,6.755l-1.887,8.034l6.344-5.444l8.545-13.984c0.857-1.403,2.684-1.883,4.08-1.071
		c1.398,0.811,1.836,2.607,0.977,4.012l-9.045,14.808L55.072,171.951z"/>
</g>
</svg>
