<?xml version="1.0" encoding="utf-8"?>
<!-- Generator: Adobe Illustrator 16.0.0, SVG Export Plug-In . SVG Version: 6.00 Build 0)  -->
<!DOCTYPE svg PUBLIC "-//W3C//DTD SVG 1.1//EN" "http://www.w3.org/Graphics/SVG/1.1/DTD/svg11.dtd">
<svg version="1.1" id="Layer_1" xmlns="http://www.w3.org/2000/svg" xmlns:xlink="http://www.w3.org/1999/xlink" x="0px" y="0px"
	 width="200px" height="200px" viewBox="0 0 200 200" enable-background="new 0 0 200 200" xml:space="preserve">
<g>
	<path fill="#020202" d="M100.595,139.575c4.308,1.011,8.74,0.909,11.961-1.708c2.75,0.956,7.627,2.188,11.557,0.711
		c1.351-0.51,2.494-1.3,3.389-2.33c2.484,0.448,6.466,0.655,10.277-1.321c4.066-2.109,6.857-6.065,8.297-11.76
		c1.313-2.09,5.836-10.267,5.303-23.047c-0.628-14.978-11.473-23.624-11.933-23.983l-0.291-0.203
		c-2.617-1.603-25.876-15.616-36.443-14.065c-3.493,0.514-9.72,2.369-17.603,4.72c-13.146,3.917-33.009,9.838-39.392,8.341
		c-1.649-0.387-3.29,0.606-3.669,2.215c-0.377,1.609,0.653,3.228,2.3,3.615c7.415,1.737,22.999-2.594,42.602-8.436
		c7.34-2.188,13.68-4.077,16.731-4.526c6.236-0.916,22.903,7.502,32.084,13.099c1.037,0.879,9.015,7.997,9.492,19.408
		c0.523,12.482-4.514,19.854-4.563,19.928l-0.324,0.462l-0.136,0.559c-0.983,4.197-2.774,7.005-5.321,8.348
		c-3.569,1.881-7.75,0.416-7.793,0.401l-2.748-0.985l-1.128,2.621c-0.292,0.687-0.702,1.087-1.379,1.343
		c-2.434,0.915-7.009-0.521-8.841-1.359l-2.267-1.034l-1.475,1.95c-3.073,4.069-12.446-0.367-15.687-2.351
		c-1.402-1.074-11.256-8.28-20.665-6.438c-5.681,1.108-25.242-4.785-36.236-8.762c-1.594-0.573-3.346,0.216-3.914,1.767
		c-0.572,1.554,0.256,3.278,1.846,3.854c3.077,1.114,30.334,10.825,39.564,9.021c7.107-1.391,15.66,5.261,15.745,5.327l0.275,0.195
		C92.911,136.84,96.701,138.661,100.595,139.575"/>
	<path fill="#020202" d="M111.07,137.25c1.55,0.363,3.131-0.497,3.606-2.002c1.367-4.331,0.984-8.513-1.136-12.429
		c-5.273-9.739-19.737-14.245-20.352-14.432c-1.644-0.488-3.326,0.387-3.813,1.968c-0.486,1.579,0.43,3.26,2.046,3.753
		c0.128,0.039,12.66,3.964,16.723,11.486c1.34,2.48,1.561,5.039,0.683,7.827c-0.5,1.577,0.407,3.265,2.022,3.769
		C110.923,137.213,110.997,137.232,111.07,137.25"/>
	<path fill="#020202" d="M125.387,135.721c0.037,0.009,0.072,0.016,0.108,0.025c1.661,0.328,3.266-0.722,3.585-2.345l3.606-18.367
		l-26.615-21.029c-1.32-1.044-3.248-0.851-4.302,0.433c-1.054,1.285-0.834,3.172,0.488,4.218l23.717,18.74l-2.908,14.816
		C122.756,133.799,123.79,135.346,125.387,135.721"/>
	<path fill="#020202" d="M142.536,124.867c0.497,0.116,1.03,0.114,1.556-0.034c1.617-0.455,2.541-2.113,2.06-3.706l-5.586-18.452
		l-23.239-22.88c-1.196-1.179-3.137-1.194-4.329-0.034c-1.192,1.162-1.188,3.06,0.011,4.239l22.134,21.791l5.143,16.985
		C140.608,123.852,141.496,124.623,142.536,124.867"/>
	<path fill="#020202" d="M167.4,148.443l-16.361-22.113l-5.925-3.429c-1.374-0.965-3.287-0.653-4.278,0.693
		c-0.99,1.345-0.681,3.217,0.691,4.178l5.12,2.864l5.005,6.765l-8.169-2.47l-3.979-2.791c-1.371-0.964-3.289-0.649-4.279,0.693
		c-0.991,1.346-0.681,3.217,0.69,4.178l4.787,3.354L167.4,148.443z"/>
	<path fill="#020202" d="M53.701,78.614c0.843-0.086,1.65-0.512,2.183-1.236c0.992-1.347,0.685-3.217-0.688-4.178L39.41,61.968
		c-0.31-0.216-0.377-0.637-0.155-0.939l2.355-3.198c0.139-0.188,0.32-0.253,0.45-0.274c0.121-0.018,0.319-0.018,0.513,0.117
		l25.783,18.361c1.373,0.964,3.288,0.652,4.279-0.692c0.99-1.345,0.682-3.216-0.691-4.179L46.162,52.802
		c-1.478-1.035-3.284-1.446-5.077-1.151c-1.799,0.29-3.376,1.248-4.443,2.696l-2.356,3.199c-2.2,2.987-1.511,7.156,1.535,9.293
		L51.606,78.07C52.236,78.514,52.984,78.688,53.701,78.614"/>
</g>
</svg>
