<?xml version="1.0" encoding="utf-8"?>
<!-- Generator: Adobe Illustrator 16.0.0, SVG Export Plug-In . SVG Version: 6.00 Build 0)  -->
<!DOCTYPE svg PUBLIC "-//W3C//DTD SVG 1.1//EN" "http://www.w3.org/Graphics/SVG/1.1/DTD/svg11.dtd">
<svg version="1.1" id="Layer_1" xmlns="http://www.w3.org/2000/svg" xmlns:xlink="http://www.w3.org/1999/xlink" x="0px" y="0px"
	 width="200px" height="200px" viewBox="0 0 200 200" enable-background="new 0 0 200 200" xml:space="preserve">
<g>
	<path fill="#020202" d="M162.307,145.307c1.656-3.391,1.045-7.467-1.521-11.991l-3.451-6.088c-2.84-5.007-2.738-13.609-3.525-20.74
		c-0.723-6.662-1.449-13.318-2.184-19.979c-0.646-5.946-3.289-10.788-8.111-13.944C135.871,67.559,122.377,61,121.58,60.61
		c-0.375-0.654-2.99-5.188-4.484-7.772c-1.553-2.699-3.758-5.293-7.633-5.894c-3.871-0.599-6.477,0.627-9.059,2.508
		c-6.662,4.863-13.313,9.734-19.975,14.6c-1.348,0.99-2.152,2.357-2.523,3.848l-6.885-6.903c-0.338-0.337-0.787-0.552-1.256-0.622
		l-11.27-1.635c-1.807-0.266-2.676,1.429-2.525,2.504l1.625,11.412c0.074,0.478,0.287,0.916,0.625,1.254l5.361,5.385
		c0.164,1.175,1.439,10.725,1.576,15.672c0.092,3.563-0.35,7.282-0.533,11.176c-0.244,5.047,0.275,10.746,4.658,14.139
		c10.84,8.365,21.678,16.742,32.52,25.107c3.809,2.942,5.596,4.855,8.293,9.154l3.637,5.794c2.736,4.362,5.824,6.927,9.531,7.282
		c1.215,0.117,0.537-4.401,0.418-4.413c-2.004-0.194-3.789-1.433-6.178-5.243l-2.414-3.83l39.477-22.782l2.338,4.169
		c2.195,3.881,2.318,5.965,1.41,7.836 M66.424,75.817L61.9,71.291l-1.105-7.733l7.6,1.104l57.711,57.871
		c1.225,1.229,1.531,2.349,1.473,3.453c-0.063,1.113-0.604,2.26-1.461,3.119c-0.869,0.868-2.002,1.49-3.115,1.459
		c-1.664-0.05-2.637-0.632-3.475-1.47l-35.316-35.45c-2.424-8.05-5.313-12.851-8.684-15.509
		C72.553,75.786,69.234,75.366,66.424,75.817 M88.551,78.573c1.195-0.162,2.441-0.489,3.74-1.061l10.951-4.822l6.375,11.053
		c2.092,3.617,1.215,8.265-4.217,11.729L88.551,78.573z M112.66,150.403c-2.391-3.483-4.68-5.854-8.131-8.528
		C93.688,133.496,82.842,125.13,72,116.753c-2.533-1.952-3.168-5.854-2.953-10.393c0.176-3.674,0.664-7.508,0.551-11.511
		c-0.133-4.923-1.051-11.399-1.42-14.089c1.494-0.102,2.932-0.418,4.576,0.879c2.268,1.789,5.09,5.641,7.152,13.18
		c0.215,0.775,0.398,1.217,0.848,1.654l35.633,35.756c2.012,2.014,4.525,2.922,6.855,2.786c2.34-0.141,4.455-1.202,6.018-2.768
		c1.563-1.563,2.627-3.666,2.758-5.996c0.133-2.33-0.768-4.854-2.777-6.865l-20.648-20.706c6.275-4.545,8.033-11.72,4.887-17.171
		l-7.389-12.769c-0.57-0.98-1.787-1.383-2.828-0.922L90.494,73.45c-4.537,2.002-6.488,0.683-7.602-1.063
		c-1.105-1.736-0.777-4.064,0.164-4.749c6.654-4.856,13.291-9.748,19.963-14.589c4.217-3.064,7.854-2.047,10.225,2.009
		l15.953,27.614c1.441,2.686,5.443,0.375,3.852-2.218l-7.406-12.82c4.965,2.544,11.063,5.783,15.436,8.649
		c3.781,2.476,5.578,5.69,6.129,10.699c0.723,6.66,1.463,13.321,2.186,19.982c0.654,5.966,0.34,13.967,3.098,20.451L112.66,150.403z
		"/>
	<path fill="#020202" d="M123.309,168.226c-0.035,0-0.068-0.002-0.104-0.007c-3.75-0.358-7.016-2.833-9.984-7.563l-3.635-5.793
		c-2.617-4.166-4.293-6.017-8.152-8.998l-32.52-25.106c-4.84-3.746-5.109-10.151-4.893-14.646c0.064-1.326,0.156-2.633,0.246-3.92
		c0.178-2.514,0.346-4.887,0.285-7.211c-0.131-4.832-1.344-13.944-1.541-15.404l-5.219-5.241c-0.424-0.424-0.697-0.974-0.795-1.589
		l-1.625-11.419c-0.117-0.836,0.23-1.82,0.865-2.45c0.611-0.607,1.449-0.868,2.346-0.734l11.27,1.633
		c0.611,0.093,1.178,0.373,1.596,0.793l6.184,6.201c0.508-1.301,1.34-2.396,2.439-3.205l19.975-14.601
		c2.404-1.752,5.221-3.28,9.508-2.618c4.434,0.688,6.725,3.862,8.064,6.19c1.402,2.425,3.795,6.575,4.391,7.61
		c3.654,1.787,14.99,7.429,21.834,11.91c4.803,3.144,7.701,8.116,8.383,14.385c0.734,6.66,1.459,13.317,2.182,19.979
		c0.189,1.703,0.328,3.521,0.463,5.28c0.438,5.667,0.889,11.528,2.988,15.228l3.451,6.088c2.734,4.823,3.252,9.047,1.539,12.555
		l-1.084-0.529c1.527-3.129,1.02-6.975-1.506-11.43l-3.451-6.088c-2.232-3.935-2.695-9.932-3.141-15.73
		c-0.135-1.749-0.273-3.559-0.461-5.241c-0.723-6.661-1.447-13.317-2.182-19.979c-0.65-5.981-3.289-10.524-7.844-13.504
		c-7.068-4.631-19.393-10.707-21.789-11.879l-0.166-0.082l-0.172-0.198c-0.375-0.653-2.988-5.187-4.482-7.769
		c-1.957-3.406-4.178-5.133-7.201-5.601c-3.641-0.562-6.074,0.552-8.611,2.399L80.787,64.539c-1.154,0.849-1.928,2.028-2.295,3.507
		l-0.258,1.039l-7.641-7.663c-0.236-0.235-0.563-0.397-0.918-0.451L58.41,59.338c-0.533-0.076-0.977,0.056-1.32,0.397
		c-0.414,0.412-0.576,1.027-0.52,1.424l1.623,11.41c0.055,0.352,0.213,0.672,0.455,0.914l5.504,5.527l0.027,0.199
		c0.016,0.102,1.436,10.438,1.582,15.738c0.061,2.385-0.109,4.785-0.289,7.328c-0.09,1.279-0.182,2.576-0.244,3.894
		c-0.205,4.226,0.031,10.231,4.426,13.632l32.518,25.107c3.947,3.05,5.762,5.051,8.436,9.311l3.635,5.795
		c2.729,4.346,5.666,6.635,8.979,6.992c0.264-0.488,0.146-2.395-0.014-3.256c-2.207-0.372-4.037-1.993-6.215-5.468l-2.748-4.361
		l40.551-23.401l2.637,4.701c2.131,3.766,2.531,6.121,1.426,8.396l-1.086-0.527c0.754-1.555,0.807-3.387-1.393-7.274l-2.041-3.638
		l-38.402,22.163l2.078,3.299c2.588,4.127,4.281,4.824,5.727,4.965l0.346,0.033l0.16,0.338c0.152,0.33,0.705,3.685-0.08,4.787
		C123.955,168.06,123.646,168.226,123.309,168.226 M112.479,151.205l-0.316-0.461c-2.309-3.365-4.555-5.72-8.004-8.392
		c-5.762-4.455-11.527-8.904-17.291-13.355l-15.236-11.766c-2.402-1.852-3.445-5.416-3.188-10.898
		c0.059-1.213,0.15-2.441,0.244-3.688c0.188-2.519,0.383-5.121,0.307-7.778c-0.127-4.66-0.959-10.714-1.359-13.622l-0.143-1.043
		l1.162-0.085c1.328-0.113,2.836-0.242,4.475,1.048c2.133,1.684,5.143,5.393,7.361,13.494c0.207,0.756,0.361,1.066,0.686,1.383
		l35.639,35.76c1.789,1.791,4.123,2.744,6.393,2.61c2.082-0.125,4.082-1.045,5.625-2.591c1.551-1.551,2.467-3.541,2.582-5.603
		c0.131-2.286-0.816-4.62-2.602-6.405l-21.148-21.207l0.574-0.414c5.883-4.264,7.824-10.998,4.717-16.381l-7.389-12.768
		c-0.416-0.719-1.303-1.008-2.061-0.672l-12.768,5.631c-3.953,1.745-6.688,1.323-8.355-1.29c-1.283-2.019-0.875-4.694,0.318-5.562
		c2.537-1.854,5.072-3.711,7.609-5.568c4.113-3.014,8.227-6.027,12.355-9.021c2.186-1.59,4.287-2.188,6.24-1.777
		c1.893,0.396,3.572,1.769,4.859,3.97l15.955,27.617c0.395,0.735,0.941,0.891,1.334,0.896c0.645-0.018,1.266-0.365,1.572-0.904
		c0.193-0.342,0.336-0.896-0.092-1.592l-8.439-14.606l1.824,0.935c6.932,3.553,12,6.393,15.488,8.682
		c3.908,2.557,5.822,5.887,6.398,11.136l2.188,19.983c0.17,1.547,0.273,3.207,0.383,4.967c0.309,4.964,0.66,10.591,2.67,15.314
		l0.209,0.492L112.479,151.205z M68.863,81.312c0.414,3.01,1.213,8.918,1.338,13.521c0.078,2.72-0.119,5.354-0.311,7.902
		c-0.092,1.235-0.184,2.453-0.24,3.654c-0.238,5.059,0.65,8.293,2.719,9.885l15.236,11.767c5.764,4.45,11.529,8.901,17.293,13.356
		c3.398,2.633,5.664,4.969,7.941,8.205l38.891-22.444c-1.91-4.802-2.254-10.325-2.559-15.216c-0.109-1.746-0.211-3.394-0.379-4.912
		l-2.188-19.982c-0.533-4.852-2.285-7.919-5.859-10.257c-3.141-2.062-7.586-4.579-13.551-7.675l6.377,11.037
		c0.557,0.906,0.6,1.934,0.105,2.805c-0.521,0.919-1.594,1.539-2.637,1.518c-0.998-0.013-1.865-0.564-2.377-1.517L112.721,55.36
		c-1.123-1.922-2.49-3.064-4.063-3.395c-1.605-0.335-3.385,0.193-5.283,1.572c-4.127,2.994-8.238,6.007-12.35,9.02
		c-2.537,1.858-5.074,3.717-7.613,5.569c-0.664,0.483-0.938,2.479-0.01,3.937c0.893,1.399,2.48,2.762,6.85,0.834l12.766-5.631
		c1.322-0.582,2.869-0.082,3.594,1.172l7.391,12.769c3.27,5.667,1.369,12.94-4.492,17.538l20.158,20.216
		c2.027,2.026,3.104,4.696,2.951,7.325c-0.131,2.357-1.174,4.628-2.932,6.389c-1.754,1.756-4.029,2.801-6.408,2.943
		c-2.629,0.148-5.289-0.928-7.32-2.963L80.326,96.899c-0.543-0.528-0.771-1.084-1.002-1.922c-2.244-8.195-5.314-11.578-6.943-12.863
		C71.152,81.147,70.082,81.208,68.863,81.312 M123.08,131.168c-0.031,0-0.064,0-0.096-0.001c-1.617-0.048-2.779-0.54-3.885-1.646
		L83.676,93.962l-0.043-0.145c-2.264-7.521-5.037-12.496-8.48-15.209c-3.115-2.459-6.412-2.551-8.633-2.194l-0.305,0.049
		l-4.885-4.887l-1.248-8.732l8.6,1.249l0.141,0.143l57.711,57.871c1.205,1.209,1.729,2.451,1.646,3.912
		c-0.068,1.258-0.664,2.539-1.633,3.512C125.5,130.576,124.242,131.168,123.08,131.168 M84.744,93.323l35.211,35.345
		c0.643,0.642,1.459,1.244,3.064,1.291c0.85,0.021,1.83-0.442,2.672-1.282c0.75-0.753,1.23-1.771,1.283-2.725
		c0.041-0.747-0.07-1.762-1.295-2.992l-57.57-57.729l-6.602-0.961l0.961,6.735l4.168,4.17c2.445-0.335,5.947-0.134,9.266,2.484
		C79.521,80.515,82.416,85.64,84.744,93.323 M105.314,96.242L87.266,78.14l1.205-0.164c1.236-0.17,2.408-0.502,3.578-1.016
		l11.445-5.041l6.645,11.523c2.498,4.314,0.764,9.236-4.414,12.537L105.314,96.242z M89.795,78.966l15.684,15.73
		c4.34-2.95,5.729-6.996,3.615-10.649l-6.104-10.586l-10.455,4.604C91.631,78.463,90.727,78.761,89.795,78.966"/>
	<path fill="#020202" d="M58.135,58.11c-0.729,0-1.389,0.265-1.895,0.767c-0.646,0.64-0.986,1.603-0.867,2.453L57,72.755
		c0.094,0.608,0.369,1.157,0.793,1.579l5.219,5.242l0.027,0.201c0.23,1.719,1.387,10.526,1.514,15.202
		c0.061,2.33-0.107,4.705-0.285,7.22c-0.094,1.315-0.184,2.604-0.244,3.913c-0.219,4.494,0.053,10.9,4.893,14.646l32.516,25.106
		c3.861,2.981,5.537,4.832,8.152,8.996l3.635,5.795c2.971,4.729,6.236,7.204,9.986,7.562l0.1,0.006c0.889,0,1.168-0.936,1.244-1.72
		c0.18-1.835-0.043-3.825-0.809-3.901c-1.445-0.14-3.141-0.838-5.727-4.963l-2.076-3.299l38.4-22.162l2.041,3.639
		c1.943,3.432,2.129,5.262,1.625,6.714l1.092,0.53c0.773-2.096,0.268-4.426-1.664-7.838l-2.639-4.703l-40.547,23.402l2.744,4.359
		c2.066,3.294,3.807,4.906,5.822,5.389l0.406,0.098l0.053,0.416c0.08,0.647,0.137,1.578,0.082,2.199l-0.061,0.656l-0.648-0.115
		c-3.08-0.552-5.83-2.812-8.4-6.91l-3.635-5.795c-2.674-4.258-4.488-6.259-8.439-9.311l-32.516-25.107
		c-3.391-2.623-4.756-6.826-4.426-13.633c0.063-1.295,0.152-2.572,0.24-3.83c0.186-2.6,0.354-5.004,0.291-7.391
		c-0.143-5.281-1.564-15.637-1.58-15.736l-0.027-0.203l-5.504-5.529c-0.238-0.233-0.4-0.557-0.453-0.903L56.57,61.16
		c-0.066-0.462,0.152-1.062,0.52-1.426c0.346-0.343,0.789-0.476,1.322-0.396l11.262,1.633c0.357,0.054,0.684,0.213,0.92,0.451
		l7.641,7.661l0.258-1.038c0.369-1.479,1.141-2.658,2.293-3.506l19.973-14.598c2.539-1.85,4.979-2.967,8.613-2.401
		c3.023,0.468,5.246,2.196,7.203,5.603c1.492,2.58,4.105,7.113,4.48,7.766l0.121,0.176l0.189,0.094
		c2.391,1.164,14.682,7.217,21.818,11.891c4.553,2.979,7.191,7.521,7.842,13.505c0.732,6.66,1.461,13.317,2.184,19.979
		c0.186,1.684,0.324,3.489,0.459,5.236c0.447,5.805,0.908,11.801,3.141,15.735l3.451,6.088c2.379,4.196,2.969,7.851,1.75,10.877
		l1.09,0.53c1.404-3.396,0.805-7.432-1.787-12.004l-3.453-6.088c-2.1-3.701-2.551-9.563-2.986-15.231
		c-0.139-1.788-0.277-3.589-0.463-5.274c-0.725-6.662-1.451-13.32-2.184-19.979c-0.684-6.271-3.58-11.243-8.383-14.384
		c-6.854-4.489-18.316-10.189-21.668-11.83l-0.166-0.082l-0.092-0.159c-0.719-1.252-2.961-5.136-4.297-7.45
		c-1.34-2.329-3.633-5.504-8.066-6.191c-4.291-0.66-7.104,0.869-9.508,2.619L80.072,63.566c-0.877,0.643-1.582,1.464-2.092,2.44
		l-0.383,0.729l-6.148-6.168c-0.418-0.418-0.986-0.7-1.6-0.793l-11.264-1.632C58.434,58.121,58.283,58.11,58.135,58.11"/>
	<path fill="#020202" d="M39.598,32.985c-1.227,0-2.229,1.002-2.229,2.235v13.7c0,2.973,4.465,2.973,4.465,0V37.438h11.463
		c1.266,0.043,2.311-0.959,2.311-2.228c0-1.265-1.045-2.267-2.311-2.224H39.598V32.985z"/>
	<path fill="#020202" d="M39.602,51.753c-1.41,0-2.836-0.972-2.836-2.832V35.222c0-1.566,1.27-2.841,2.832-2.841l13.699,0.002
		c0.773-0.022,1.496,0.257,2.055,0.796c0.555,0.536,0.859,1.258,0.859,2.032s-0.305,1.497-0.859,2.034
		c-0.559,0.539-1.303,0.822-2.074,0.798h-10.84v10.878C42.438,50.781,41.012,51.753,39.602,51.753 M39.598,33.589
		c-0.896,0-1.623,0.732-1.623,1.633v13.699c-0.002,2.246,3.254,2.243,3.256,0V36.835h12.066c0.461,0.01,0.895-0.148,1.215-0.458
		c0.316-0.308,0.492-0.721,0.492-1.166c0-0.444-0.176-0.856-0.492-1.164c-0.322-0.31-0.756-0.473-1.195-0.457l-13.719,0.001V33.589z
		"/>
	<path fill="#020202" d="M39.602,52.358c-1.666,0-3.439-1.205-3.439-3.437V35.221c0-1.899,1.541-3.444,3.436-3.444l13.699,0.002
		c0.916-0.031,1.795,0.312,2.473,0.965c0.674,0.652,1.045,1.527,1.045,2.468s-0.371,1.817-1.043,2.469
		c-0.678,0.654-1.563,0.983-2.516,0.967H43.041v10.275C43.041,51.153,41.27,52.358,39.602,52.358 M39.598,34.192
		c-0.563,0-1.02,0.461-1.02,1.028v13.701c0,0.946,0.783,1.021,1.023,1.021s1.023-0.074,1.023-1.021v-12.69h12.672
		c0.33,0.024,0.594-0.093,0.793-0.287c0.199-0.192,0.309-0.453,0.309-0.733c0-0.278-0.109-0.538-0.309-0.729
		c-0.199-0.195-0.459-0.301-0.752-0.287h-13.74V34.192z"/>
	<path fill="#020202" d="M39.598,32.382c-1.561,0-2.832,1.273-2.832,2.838v13.701c0,1.84,1.461,2.832,2.836,2.832
		s2.836-0.992,2.836-2.832V38.043l10.82-0.001c0.84,0.03,1.541-0.262,2.094-0.796c0.555-0.537,0.859-1.261,0.859-2.035
		s-0.307-1.495-0.861-2.034c-0.557-0.537-1.268-0.811-2.033-0.795H39.598z"/>
	<path fill="#020202" d="M39.602,50.546c-0.809,0-1.627-0.504-1.627-1.625v-13.7c0-0.899,0.729-1.632,1.623-1.632l13.74,0.002
		c0.416-0.023,0.848,0.142,1.172,0.455c0.318,0.309,0.494,0.722,0.494,1.166c0,0.443-0.176,0.857-0.492,1.166
		c-0.344,0.334-0.777,0.494-1.26,0.455L41.23,36.835v12.086C41.23,50.042,40.412,50.546,39.602,50.546"/>
	<path fill="#020202" d="M39.598,34.797c-0.229,0-0.416,0.19-0.416,0.425v13.699c0,0.166,0,0.417,0.42,0.417s0.42-0.251,0.42-0.417
		V35.628h13.275c0.18,0.008,0.277-0.025,0.375-0.117c0.08-0.08,0.123-0.183,0.123-0.3c0-0.114-0.043-0.218-0.123-0.296
		c-0.09-0.084-0.189-0.13-0.307-0.117L39.598,34.797L39.598,34.797z"/>
	<path fill="#020202" d="M78.867,32.985c-1.256-0.041-2.311,0.959-2.311,2.224c0,1.269,1.055,2.272,2.311,2.228H90.34v8.195
		c-0.053,1.255,0.959,2.309,2.219,2.309c1.266,0,2.266-1.054,2.227-2.309V35.219c0-1.224-0.994-2.224-2.219-2.235H78.867V32.985z"/>
	<path fill="#020202" d="M92.557,48.545c-0.773,0-1.5-0.309-2.037-0.87s-0.816-1.296-0.783-2.068v-7.565H78.867
		c-0.744,0.032-1.492-0.257-2.051-0.797c-0.557-0.538-0.863-1.26-0.863-2.035c0-0.771,0.305-1.491,0.859-2.028
		c0.557-0.539,1.273-0.83,2.064-0.799l13.691-0.003c1.557,0.015,2.82,1.288,2.82,2.841v10.412c0.023,0.76-0.262,1.495-0.803,2.053
		C94.049,48.24,93.328,48.545,92.557,48.545 M90.34,36.833h0.604v8.799c-0.02,0.465,0.141,0.885,0.447,1.206
		c0.617,0.64,1.711,0.644,2.328,0.007c0.313-0.322,0.477-0.746,0.461-1.193V35.22c0-0.893-0.725-1.625-1.619-1.633l-13.713,0.001
		c-0.445-0.01-0.873,0.15-1.193,0.462c-0.318,0.307-0.494,0.719-0.494,1.159c0,0.444,0.176,0.858,0.496,1.166
		c0.32,0.312,0.738,0.463,1.189,0.459L90.34,36.833z"/>
	<path fill="#020202" d="M92.559,49.148c-0.93,0-1.83-0.386-2.477-1.058c-0.65-0.68-0.988-1.571-0.949-2.51l-0.002-6.936H78.867
		c-0.9,0.029-1.793-0.311-2.471-0.967c-0.676-0.653-1.047-1.53-1.047-2.469c0-0.937,0.369-1.812,1.043-2.463
		c0.672-0.651,1.529-0.994,2.492-0.971l13.684-0.001c1.893,0.019,3.424,1.563,3.424,3.444v10.412
		c0.029,0.904-0.316,1.797-0.973,2.474C94.369,48.778,93.494,49.148,92.559,49.148 M90.34,36.229h1.207v9.402
		c-0.012,0.326,0.088,0.586,0.279,0.787c0.387,0.402,1.072,0.403,1.459,0.006c0.197-0.203,0.301-0.471,0.291-0.756V35.22
		c0-0.563-0.457-1.023-1.02-1.028l-13.729,0.001c-0.283-0.009-0.551,0.094-0.756,0.291c-0.197,0.191-0.307,0.45-0.307,0.727
		c0,0.278,0.109,0.539,0.309,0.731c0.203,0.194,0.473,0.3,0.752,0.289L90.34,36.229z"/>
	<path fill="#020202" d="M89.133,38.041h0.604v7.539c-0.033,0.798,0.246,1.532,0.783,2.093c1.066,1.113,2.998,1.117,4.066,0.012
		c0.543-0.558,0.826-1.279,0.803-2.032V35.22c0-1.551-1.27-2.826-2.826-2.841l-13.678,0.003c-0.799-0.025-1.512,0.256-2.07,0.799
		c-0.557,0.537-0.861,1.256-0.861,2.028c0,0.774,0.307,1.497,0.863,2.036c0.549,0.531,1.305,0.805,2.031,0.797L89.133,38.041z"/>
	<path fill="#020202" d="M92.559,47.325h-0.004c-0.443,0-0.867-0.179-1.164-0.487c-0.311-0.324-0.465-0.749-0.445-1.228
		l-0.002-8.777l-12.117,0.002c-0.422,0.027-0.85-0.149-1.17-0.459s-0.496-0.723-0.496-1.168c0-0.439,0.176-0.852,0.492-1.158
		c0.322-0.311,0.77-0.456,1.193-0.462l13.711-0.001c0.896,0.01,1.623,0.742,1.623,1.633l0.002,10.449
		c0.014,0.431-0.15,0.854-0.463,1.176C93.422,47.15,92.998,47.325,92.559,47.325"/>
	<path fill="#020202" d="M90.34,35.625h1.813v10.007c-0.008,0.219,0.055,0.312,0.111,0.369c0.07,0.073,0.172,0.098,0.295,0.117
		c0.117,0,0.223-0.042,0.295-0.115c0.082-0.085,0.123-0.193,0.121-0.314L92.973,35.22c0-0.232-0.191-0.422-0.422-0.425
		l-13.723,0.001c-0.135,0.004-0.248,0.038-0.336,0.122c-0.08,0.078-0.123,0.179-0.123,0.291c0,0.115,0.043,0.218,0.125,0.298
		c0.084,0.084,0.195,0.119,0.307,0.12L90.34,35.625z"/>
	<path fill="#020202" d="M39.566,79.812c-1.227,0.01-2.217,1.034-2.197,2.256v13.712c0,1.236,1.002,2.226,2.229,2.216h13.699
		c1.264,0.051,2.311-0.961,2.311-2.216c0-1.267-1.047-2.28-2.311-2.228H41.834V82.067C41.846,80.812,40.822,79.792,39.566,79.812"/>
	<path fill="#020202" d="M53.391,98.602c-0.041,0-0.08-0.001-0.119-0.003L39.598,98.6c-0.781-0.021-1.463-0.284-1.998-0.815
		c-0.539-0.533-0.834-1.244-0.834-2.004V82.067c-0.012-0.746,0.275-1.464,0.807-2.009c0.531-0.542,1.236-0.844,1.986-0.851
		c0.783,0.018,1.494,0.281,2.041,0.822c0.547,0.545,0.846,1.271,0.838,2.043v10.875h10.859c0.754-0.043,1.482,0.244,2.041,0.78
		c0.563,0.54,0.873,1.269,0.873,2.052c0,0.773-0.309,1.498-0.867,2.034C54.813,98.325,54.123,98.602,53.391,98.602 M53.297,97.392
		c0.475,0.016,0.889-0.141,1.209-0.449c0.322-0.307,0.498-0.72,0.498-1.162c0-0.451-0.178-0.869-0.502-1.18
		c-0.318-0.307-0.742-0.468-1.182-0.445H41.23V82.067c0.004-0.449-0.168-0.867-0.482-1.179c-0.313-0.312-0.688-0.472-1.172-0.474
		H39.57c-0.428,0.004-0.83,0.177-1.133,0.488c-0.307,0.313-0.471,0.723-0.465,1.154V95.78c0,0.435,0.17,0.842,0.477,1.146
		c0.303,0.3,0.703,0.465,1.131,0.465h0.014H53.297z"/>
	<path fill="#020202" d="M53.391,99.206c-0.047,0-0.096-0.001-0.143-0.003l-13.65,0.001c-0.906-0.051-1.773-0.346-2.424-0.991
		c-0.652-0.647-1.012-1.512-1.012-2.435V82.067c-0.014-0.898,0.332-1.768,0.977-2.43c0.645-0.658,1.5-1.025,2.414-1.033
		c0.881-0.004,1.811,0.34,2.475,0.998c0.662,0.66,1.023,1.539,1.014,2.476v10.265h10.256c0.887-0.037,1.781,0.299,2.459,0.95
		c0.684,0.655,1.059,1.538,1.059,2.485c0,0.941-0.373,1.818-1.053,2.472C55.117,98.87,54.279,99.206,53.391,99.206 M53.297,96.788
		c0.316,0.011,0.59-0.088,0.791-0.281c0.201-0.191,0.311-0.451,0.311-0.729c0-0.283-0.111-0.547-0.314-0.741
		c-0.199-0.191-0.459-0.289-0.738-0.279l-12.721,0.001V82.067c0.004-0.291-0.104-0.553-0.303-0.75
		c-0.197-0.197-0.451-0.297-0.736-0.299h-0.01c-0.266,0.004-0.516,0.111-0.707,0.308c-0.193,0.196-0.295,0.452-0.291,0.721v13.731
		c0,0.273,0.105,0.529,0.297,0.72c0.191,0.188,0.422,0.272,0.713,0.29H53.297z"/>
	<path fill="#020202" d="M53.248,98.599l0.143,0.002c0.73,0,1.424-0.278,1.953-0.787c0.561-0.537,0.867-1.26,0.867-2.033
		c0-0.783-0.309-1.512-0.873-2.051c-0.551-0.529-1.283-0.815-2.014-0.782H42.438V82.078c0.008-0.776-0.291-1.502-0.838-2.047
		c-0.52-0.515-1.279-0.823-2.037-0.823h-0.008c-0.748,0.006-1.453,0.309-1.982,0.852c-0.533,0.547-0.818,1.256-0.807,1.998V95.78
		c0,0.759,0.297,1.471,0.834,2.004c0.621,0.617,1.447,0.785,2.031,0.816L53.248,98.599z"/>
	<path fill="#020202" d="M53.342,97.393c-0.02,0-0.035,0-0.055-0.001H39.588c-0.488-0.025-0.85-0.178-1.139-0.466
		c-0.307-0.303-0.475-0.71-0.475-1.146V82.047c-0.008-0.42,0.156-0.83,0.463-1.144c0.303-0.311,0.707-0.484,1.133-0.487
		c0.469,0.002,0.869,0.166,1.18,0.474c0.314,0.313,0.484,0.733,0.48,1.184v12.082l12.117-0.002c0.406-0.008,0.838,0.143,1.156,0.447
		c0.32,0.309,0.5,0.729,0.5,1.18c0,0.442-0.178,0.855-0.498,1.164C54.201,97.235,53.791,97.393,53.342,97.393"/>
	<path fill="#020202" d="M39.584,81.624c-0.107,0-0.205,0.044-0.283,0.123c-0.08,0.082-0.121,0.183-0.119,0.289V95.78
		c0,0.11,0.043,0.213,0.119,0.289c0.051,0.051,0.121,0.104,0.322,0.116l13.684-0.001h0.01c0.148,0.008,0.271-0.033,0.355-0.113
		c0.08-0.078,0.123-0.179,0.123-0.291c0-0.121-0.045-0.228-0.129-0.308c-0.08-0.078-0.184-0.114-0.295-0.11l-13.35,0.002V82.067
		c0.002-0.133-0.041-0.238-0.125-0.322C39.814,81.663,39.715,81.624,39.584,81.624"/>
</g>
</svg>
