<?xml version="1.0" encoding="utf-8"?>
<!-- Generator: Adobe Illustrator 16.0.0, SVG Export Plug-In . SVG Version: 6.00 Build 0)  -->
<!DOCTYPE svg PUBLIC "-//W3C//DTD SVG 1.1//EN" "http://www.w3.org/Graphics/SVG/1.1/DTD/svg11.dtd">
<svg version="1.1" id="Layer_1" xmlns="http://www.w3.org/2000/svg" xmlns:xlink="http://www.w3.org/1999/xlink" x="0px" y="0px"
	 width="200px" height="200px" viewBox="0 0 200 200" enable-background="new 0 0 200 200" xml:space="preserve">
<g>
	<path fill="#020202" d="M126.703,157.646c-1.107,0-2.176-0.606-2.703-1.654l-5.35-10.602c-0.551-1.095-1.447-2.008-2.59-2.64
		c-11.334-6.269-34.15-24.83-35.117-25.617l-0.186-0.165l-10.988-10.58L55.141,79.496c-1.438-2.643-1.533-5.85-0.252-8.581
		c1.236-2.638,3.561-4.487,6.379-5.073c12.375-2.574,25.568,17.775,29.385,24.182c1.373-0.01,2.902,0.093,4.506,0.301
		c1.654,0.216,2.818,1.719,2.602,3.359c-0.219,1.639-1.736,2.797-3.389,2.577c-1.949-0.254-3.68-0.315-5.146-0.184l-1.959,0.176
		l-0.955-1.703c-5.4-9.624-16.648-24.332-23.803-22.848c-1.279,0.266-1.891,1.2-2.141,1.735c-0.48,1.026-0.447,2.229,0.09,3.217
		l14.188,26.082l10.23,9.85c1.639,1.33,23.623,19.126,34.129,24.936c2.207,1.222,3.955,3.017,5.051,5.192l5.348,10.601
		c0.746,1.478,0.141,3.276-1.35,4.016C127.619,157.545,127.158,157.646,126.703,157.646"/>
	<path fill="#020202" d="M146.031,113.038c-1.459,0-2.742-1.05-2.98-2.522c-5.881-36.482-8.061-42.164-8.59-43.037
		c-2.602-4.271-36.822-18.834-42.674-19.127c-5.768,2.113-20.82,8.469-26.18,11.879c0.209,0.158,0.418,0.313,0.625,0.471
		c3.297,2.48,6.145,4.623,11.178,2.486c2.865-1.219,4.457-2.315,5.736-3.197c2.82-1.947,4.867-2.936,9.467-0.254
		c5.23,3.05,13.57,8.947,13.924,9.197l1.303,0.924l-0.414,16.455c-0.041,1.652-1.443,2.978-3.094,2.916
		c-1.668-0.041-2.986-1.414-2.945-3.066l0.334-13.27c-2.566-1.789-8.355-5.771-12.17-7.994c-1.061-0.619-1.518-0.773-1.682-0.812
		c-0.256,0.116-0.816,0.502-1.273,0.817c-1.344,0.927-3.375,2.328-6.807,3.785c-8.268,3.511-13.65-0.541-17.211-3.222
		c-0.904-0.681-1.76-1.325-2.523-1.758c-1.326-0.751-2.043-2.06-1.918-3.501c0.191-2.216,1.467-4.423,15.666-10.85
		c6.844-3.098,14.396-6.086,16.246-6.754c1.17-0.42,2.82-0.598,10.078,1.824c4.322,1.442,9.654,3.496,15.02,5.783
		c9.781,4.17,21.971,10.016,24.494,14.186c0.781,1.287,2.854,4.711,9.375,45.172c0.266,1.634-0.857,3.168-2.506,3.43
		C146.35,113.025,146.189,113.038,146.031,113.038"/>
	<path fill="#020202" d="M162.018,157.646c-1.021,0-2.018-0.513-2.586-1.441l-12.496-20.438l-0.088-0.604
		c0-0.004-0.602-4.139-1.559-10.381c-0.25-1.636,0.885-3.162,2.535-3.41c1.648-0.248,3.189,0.877,3.439,2.512
		c0.742,4.865,1.273,8.455,1.475,9.82l11.859,19.396c0.863,1.414,0.408,3.255-1.018,4.112
		C163.092,157.506,162.551,157.646,162.018,157.646"/>
	<path fill="#020202" d="M161.771,134.545c-1.07,0-2.154-0.269-3.146-0.836L84.914,91.553c-1.445-0.828-1.939-2.658-1.107-4.09
		c0.834-1.432,2.68-1.925,4.127-1.097l73.709,42.155c0.133,0.076,0.303,0.033,0.379-0.1l2.385-4.097
		c0.039-0.065,0.047-0.136,0.027-0.208c-0.02-0.073-0.063-0.129-0.129-0.166L54.363,61.072l-8.268-1.68l5.605,6.252l6.594,3.771
		c1.445,0.826,1.941,2.657,1.107,4.089s-2.68,1.924-4.125,1.098l-7.441-4.256L29.514,49.907l27.021,5.495l110.789,63.361
		c1.461,0.836,2.508,2.187,2.943,3.803c0.438,1.615,0.215,3.302-0.629,4.751l-2.385,4.097
		C166.086,133.422,163.957,134.545,161.771,134.545"/>
</g>
</svg>
