<?xml version="1.0" encoding="utf-8"?>
<!-- Generator: Adobe Illustrator 16.0.0, SVG Export Plug-In . SVG Version: 6.00 Build 0)  -->
<!DOCTYPE svg PUBLIC "-//W3C//DTD SVG 1.1//EN" "http://www.w3.org/Graphics/SVG/1.1/DTD/svg11.dtd">
<svg version="1.1" id="Layer_1" xmlns="http://www.w3.org/2000/svg" xmlns:xlink="http://www.w3.org/1999/xlink" x="0px" y="0px"
	 width="200px" height="200px" viewBox="0 0 200 200" enable-background="new 0 0 200 200" xml:space="preserve">
<g>
	<path fill="#020202" d="M99.405,139.575c-4.308,1.011-8.74,0.909-11.961-1.708c-2.75,0.956-7.627,2.188-11.557,0.711
		c-1.351-0.51-2.494-1.3-3.389-2.33c-2.484,0.448-6.466,0.655-10.277-1.321c-4.066-2.109-6.857-6.065-8.297-11.76
		c-1.313-2.09-5.836-10.267-5.303-23.047c0.628-14.978,11.473-23.624,11.933-23.983l0.291-0.203
		c2.617-1.603,25.876-15.616,36.443-14.065c3.493,0.514,9.72,2.369,17.603,4.72c13.146,3.917,33.009,9.838,39.392,8.341
		c1.649-0.387,3.29,0.606,3.669,2.215c0.377,1.609-0.653,3.228-2.3,3.615c-7.415,1.737-22.999-2.594-42.602-8.436
		c-7.34-2.188-13.68-4.077-16.731-4.526c-6.236-0.916-22.903,7.502-32.084,13.099c-1.037,0.879-9.015,7.997-9.492,19.408
		c-0.523,12.482,4.514,19.854,4.563,19.928l0.324,0.462l0.136,0.559c0.983,4.197,2.774,7.005,5.321,8.348
		c3.569,1.881,7.75,0.416,7.793,0.401l2.748-0.985l1.128,2.621c0.292,0.687,0.702,1.087,1.379,1.343
		c2.434,0.915,7.009-0.521,8.841-1.359l2.267-1.034l1.475,1.95c3.073,4.069,12.446-0.367,15.687-2.351
		c1.402-1.074,11.256-8.28,20.665-6.438c5.681,1.108,25.242-4.785,36.236-8.762c1.594-0.573,3.346,0.216,3.914,1.767
		c0.572,1.554-0.256,3.278-1.846,3.854c-3.077,1.114-30.334,10.825-39.564,9.021c-7.107-1.391-15.66,5.261-15.745,5.327
		l-0.275,0.195C107.089,136.84,103.299,138.661,99.405,139.575"/>
	<path fill="#020202" d="M88.93,137.25c-1.55,0.363-3.131-0.497-3.606-2.002c-1.367-4.331-0.984-8.513,1.136-12.429
		c5.273-9.739,19.737-14.245,20.352-14.432c1.644-0.488,3.326,0.387,3.813,1.968c0.486,1.579-0.43,3.26-2.046,3.753
		c-0.128,0.039-12.66,3.964-16.723,11.486c-1.34,2.48-1.561,5.039-0.683,7.827c0.5,1.577-0.407,3.265-2.022,3.769
		C89.077,137.213,89.003,137.232,88.93,137.25"/>
	<path fill="#020202" d="M74.613,135.721c-0.037,0.009-0.072,0.016-0.108,0.025c-1.661,0.328-3.266-0.722-3.585-2.345l-3.606-18.367
		l26.615-21.029c1.32-1.044,3.248-0.851,4.302,0.433c1.054,1.285,0.834,3.172-0.488,4.218l-23.717,18.74l2.908,14.816
		C77.244,133.799,76.21,135.346,74.613,135.721"/>
	<path fill="#020202" d="M57.464,124.867c-0.497,0.116-1.03,0.114-1.556-0.034c-1.617-0.455-2.541-2.113-2.06-3.706l5.586-18.452
		l23.239-22.88c1.196-1.179,3.137-1.194,4.329-0.034c1.192,1.162,1.188,3.06-0.011,4.239l-22.134,21.791l-5.143,16.985
		C59.392,123.852,58.504,124.623,57.464,124.867"/>
	<path fill="#020202" d="M32.6,148.443l16.361-22.113l5.925-3.429c1.374-0.965,3.287-0.653,4.278,0.693
		c0.99,1.345,0.681,3.217-0.691,4.178l-5.12,2.864l-5.005,6.765l8.169-2.47l3.979-2.791c1.371-0.964,3.289-0.649,4.279,0.693
		c0.991,1.346,0.681,3.217-0.69,4.178l-4.787,3.354L32.6,148.443z"/>
	<path fill="#020202" d="M146.299,78.614c-0.843-0.086-1.65-0.512-2.183-1.236c-0.992-1.347-0.685-3.217,0.688-4.178l15.785-11.232
		c0.31-0.216,0.377-0.637,0.155-0.939l-2.355-3.198c-0.139-0.188-0.32-0.253-0.45-0.274c-0.121-0.018-0.319-0.018-0.513,0.117
		l-25.783,18.361c-1.373,0.964-3.288,0.652-4.279-0.692c-0.99-1.345-0.682-3.216,0.691-4.179l25.782-18.361
		c1.478-1.035,3.284-1.446,5.077-1.151c1.799,0.29,3.376,1.248,4.443,2.696l2.356,3.199c2.2,2.987,1.511,7.156-1.535,9.293
		L148.394,78.07C147.764,78.514,147.016,78.688,146.299,78.614"/>
</g>
</svg>
