<?xml version="1.0" encoding="utf-8"?>
<!-- Generator: Adobe Illustrator 16.0.0, SVG Export Plug-In . SVG Version: 6.00 Build 0)  -->
<!DOCTYPE svg PUBLIC "-//W3C//DTD SVG 1.1//EN" "http://www.w3.org/Graphics/SVG/1.1/DTD/svg11.dtd">
<svg version="1.1" id="Layer_1" xmlns="http://www.w3.org/2000/svg" xmlns:xlink="http://www.w3.org/1999/xlink" x="0px" y="0px"
	 width="200px" height="200px" viewBox="0 0 200 200" enable-background="new 0 0 200 200" xml:space="preserve">
<g>
	<path fill="#020202" d="M135.063,140.144c0.508-0.755,0.968-1.682,1.334-2.822c2.315-7.212,0.225-35.17-0.022-38.334l-0.066-0.862
		l-18.425-24.54c-0.99-1.317-2.852-1.622-4.157-0.677c-1.31,0.946-1.564,2.78-0.575,4.097l17.373,23.138
		c0.87,11.625,1.659,30.759,0.211,35.268c-0.267,0.828-0.736,1.866-1.451,2.103c-0.345,0.112-1.661,0.315-4.575-1.556
		c-1.457-3.033-4.102-19.125-5.784-32.813l-0.15-1.229l-13.682-10.738c-1.301-1.021-3.164-0.826-4.162,0.433
		c-0.989,1.273-0.75,3.109,0.549,4.13l11.709,9.19c0.336,2.621,1.18,9.05,2.214,15.544c2.893,18.187,4.363,19.178,5.661,20.052
		c3.92,2.64,7.357,3.503,10.216,2.567C132.441,142.713,133.885,141.893,135.063,140.144"/>
	<path fill="#020202" d="M119.819,143.393l0.606-3.49c0.084-0.479,1.956-11.776-5.328-16.063c-3.872-2.28-9.864-8.242-13.084-11.447
		c-1.024-1.019-1.803-1.793-2.334-2.278c-0.219-0.813-0.026-3.096,0.43-4.912c0.392-1.563-0.578-3.18-2.168-3.609
		c-1.59-0.431-3.197,0.483-3.592,2.045c-0.741,2.924-1.563,8.194,1.252,10.641c0.367,0.318,1.244,1.189,2.258,2.2
		c3.65,3.632,9.762,9.713,14.306,12.387c1.897,1.118,2.482,3.951,2.586,6.359c-3.043-1.049-7.74-2.545-13.454-3.963
		c-7.201-1.786-20.279-15.442-25.239-21.141L64.203,73.436l-13.64-17.399c-1.017-1.3-2.883-1.563-4.169-0.59
		c-1.279,0.97-1.503,2.812-0.484,4.11l12.973,16.551l11.898,36.823l0.398,0.463c1.832,2.134,18.197,20.927,28.816,23.563
		c9.629,2.388,16.392,5.067,16.459,5.094L119.819,143.393z"/>
	<path fill="#020202" d="M138.609,129.153c5.614-8.336,8.272-27.421,8.795-31.57l0.109-0.864l-17.497-35.888
		c-0.72-1.476-2.497-2.127-3.969-1.453c-1.476,0.673-2.084,2.416-1.364,3.89l16.719,34.294c-1.343,10.046-4.818,26.272-8.915,29.617
		c-1.247,1.025-1.394,2.87-0.329,4.13c1.064,1.261,2.938,1.455,4.185,0.436C137.146,131.086,137.901,130.205,138.609,129.153"/>
	<path fill="#020202" d="M145.189,121.402c6.232-9.253,9.208-22.728,9.362-23.442l0.178-0.822L141.642,61.32
		c-0.563-1.537-2.267-2.366-3.805-1.852c-1.54,0.518-2.334,2.18-1.771,3.718l12.498,34.204c-1.455,6.169-6.024,20.658-12.679,25.441
		c-1.31,0.942-1.571,2.773-0.585,4.094c0.986,1.322,2.847,1.629,4.155,0.688C141.607,126.067,143.517,123.886,145.189,121.402"/>
	<path fill="#020202" d="M154.134,98.942c0.369-0.549,0.549-1.229,0.461-1.945c-0.145-1.201-3.594-29.458-4.645-34.466
		c-1.188-5.66-12.844-14.272-16.389-16.778l-0.625-0.441l-38.251-4.883l-7.51-11.039c-0.928-1.361-2.774-1.751-4.125-0.871
		c-1.358,0.883-1.699,2.699-0.772,4.061l9.065,13.325l39.469,5.038c6.187,4.456,12.869,10.45,13.326,12.637
		c1,4.764,4.529,33.677,4.564,33.967c0.196,1.616,1.676,2.801,3.302,2.647C152.909,100.11,153.671,99.629,154.134,98.942"/>
	<path fill="#020202" d="M144.927,171.951l-6.169-26.264l-4.63-7.579c-0.856-1.402-2.684-1.884-4.082-1.071
		c-1.396,0.813-1.833,2.607-0.977,4.012l4.127,6.755l1.888,8.034l-6.345-5.444l-8.544-13.984c-0.857-1.403-2.685-1.883-4.081-1.071
		c-1.397,0.811-1.835,2.607-0.977,4.012l9.046,14.808L144.927,171.951z"/>
</g>
</svg>
