<?xml version="1.0" encoding="utf-8"?>
<!-- Generator: Adobe Illustrator 24.1.1, SVG Export Plug-In . SVG Version: 6.00 Build 0)  -->
<svg version="1.1" id="Layer_1" xmlns="http://www.w3.org/2000/svg" xmlns:xlink="http://www.w3.org/1999/xlink" x="0px" y="0px"
	 viewBox="87.87 186.32 419.57 469.25" style="enable-background:new 0 0 595.28 841.89;" xml:space="preserve">
<style type="text/css">
	.st0{fill:#010101;}
</style>
<g>
	<g>
		<path class="st0" d="M28.47,651.8c-1.87,5.58,1.15,11.62,6.73,13.49c1.12,0.37,2.26,0.55,3.38,0.55c4.46,0,8.62-2.82,10.11-7.28
			l34.93-104.49c-6.77-1.38-13.44-4.13-20.21-6.78L28.47,651.8z"/>
	</g>
	<g>
		<path class="st0" d="M463.91,503.4c-1.5,0.43-3.11,0.96-4.78,1.43l-18.36,54.91c-1.87,5.58,1.15,11.62,6.73,13.49
			c1.12,0.37,2.26,0.55,3.38,0.55c4.46,0,8.62-2.82,10.11-7.28l22.66-67.77C477.04,499.93,470.45,501.42,463.91,503.4z"/>
	</g>
	<g>
		<path class="st0" d="M562.28,606.62l-37.73-112.83c-7.24,0.73-14.49,1.39-21.74,2.22l39.24,117.37c1.49,4.46,5.65,7.28,10.11,7.28
			c1.12,0,2.26-0.18,3.38-0.55C561.13,618.25,564.15,612.21,562.28,606.62z"/>
	</g>
	<g>
		<path class="st0" d="M187.25,716.58l-57.19-171.05c-6.85,1.98-13.56,4.36-20.38,6.28l57.35,171.53c1.49,4.46,5.65,7.28,10.11,7.28
			c1.12,0,2.26-0.18,3.38-0.55C186.11,728.21,189.12,722.17,187.25,716.58z"/>
	</g>
	<path class="st0" d="M37.18,539.71c-0.69,7.22-7.19,12.92-14.96,16.36c-2.31,1.04-1.73,4.46,0.8,4.61l61.24,11.22l13.52,2.47
		c0.07,0,0.14-0.01,0.21-0.01l0.31-0.01l0.05-0.01c0.01,0,0.02,0,0.03-0.01l474.78-81.6c1.66-0.23,1.83-2.51,0.24-3.05
		c-6.73-2.23-12.51-6.8-13.34-13.34c-0.08-0.67-0.13-1.34-0.14-2.03l-0.03-278.18c-0.01-0.36,0-0.71,0.03-1.06
		c0.3-5.68,5.38-9.7,12.73-11.49c1.61-0.39,1.31-2.82-0.33-3.03l-46.25-6.73l-17.22,17.14l26.48,3.5c5.56,0.59,9.81,5.26,9.89,10.86
		l-0.01,258.36c0.09,5.64-4.1,10.44-9.68,11.15L90.15,541.3c-5.88,0.88-11.16-3.67-11.16-9.61l0,0l0-385.43
		c0-5.86,5.15-10.39,10.96-9.64l314.93,40.75l18.65,2.42l51.7,6.75c2.74-6.39,5.65-12.69,8.9-18.84l-42.33-6.18l-18.27-2.67
		L98.29,111.29c0,0-0.01,0.01-0.01,0.01c-0.06-0.01-0.11-0.02-0.18-0.02c0,0-0.21-0.02-0.33-0.01l-0.21,0.04l0,0c0,0,0,0,0,0
		l-0.02,0.01l-12.5,2.29l-62.02,11.35c-2.54,0.15-3.12,3.58-0.8,4.61c7.76,3.44,14.27,9.15,14.96,16.37V539.71z"/>
	<g>
		<path class="st0" d="M547.79,130.89L402.98,275.02c-0.45,0.45-0.94,0.89-1.45,1.28c-0.83,0.67-1.75,1.24-2.72,1.72l-29.95,15.01
			c-4.33-9.4-11.78-17.06-21.06-21.64l14.82-29.55c0.77-1.55,1.79-2.95,3.01-4.18l118.95-118.22l2.19-2.19
			c3.28-3.27,7.98-4.69,12.53-3.78l23.31,4.69l22.73,4.57C549.12,123.51,550.52,128.17,547.79,130.89z"/>
	</g>
	<path class="st0" d="M311.09,289.12c1,3.24-3.49,5.17-5.25,2.27c-0.33-0.54-0.66-1.07-1-1.6c-2.05-3.15-4.19-6.17-6.67-8.87
		c-2.46-2.71-5.06-5.21-7.85-7.43c-2.78-2.23-5.79-4.11-8.85-5.78c-3.07-1.67-6.26-3.05-9.54-4.16c-6.58-2.14-13.4-3.37-20.28-3.57
		c-13.76-0.44-27.55,2.67-39.89,8.28c-12.33,5.61-23.31,13.75-31.28,23.61c-2.02,2.44-3.8,5.02-5.42,7.65
		c-1.61,2.64-3.03,5.34-4.21,8.13c-1.18,2.78-2.19,5.61-2.93,8.49c-0.21,0.71-0.34,1.45-0.53,2.17c-0.19,0.72-0.32,1.45-0.45,2.18
		l-0.2,1.09l-0.1,0.55l-0.09,0.62l-0.36,2.47c-0.91,6.6-1.2,13.19-0.91,19.7c0.35,6.5,1.19,12.94,2.78,19.15
		c3.03,12.45,8.58,24.13,16.17,34.01c7.57,9.88,17.2,17.9,27.82,22.97c10.62,5.12,22.13,7.09,33.37,5.75
		c11.26-1.3,22.33-6.08,32.45-13.52l1.89-1.41c0.63-0.48,1.23-1,1.85-1.5c1.25-0.97,2.44-2.08,3.65-3.14
		c1.21-1.08,2.35-2.22,3.57-3.35l4.47-4.32c6.01-5.73,12.33-11.2,18.95-16.4l2.49-1.94l2.54-1.89c1.68-1.27,3.43-2.48,5.16-3.7
		c1.73-1.22,3.52-2.39,5.28-3.58c1.81-1.14,3.58-2.32,5.43-3.41c3.66-2.23,7.44-4.32,11.29-6.32c3.88-1.96,7.83-3.83,11.93-5.48
		c4.08-1.67,8.26-3.19,12.59-4.44c4.32-1.25,8.72-2.36,13.27-3.09c4.54-0.74,9.17-1.21,13.88-1.32c4.7-0.11,9.48,0.21,14.22,0.94
		c9.48,1.46,18.86,4.85,26.95,10c8.15,5.08,14.81,11.9,20.04,19.17c2.63,3.64,4.9,7.45,6.82,11.35c1.92,3.89,3.63,7.83,5.01,11.82
		c1.4,3.98,2.55,8.01,3.48,12.03c0.96,4.02,1.72,8.05,2.28,12.08c0.25,2.02,0.54,4.02,0.72,6.04l0.3,3.01l0.22,3.01
		c0.26,4.01,0.34,8.01,0.35,11.99c-0.01,1.5-0.04,2.99-0.08,4.49c-0.09,3.34-4.86,3.85-5.68,0.61c-0.36-1.41-0.73-2.82-1.11-4.22
		c-1-3.73-2.06-7.42-3.26-11.04l-0.87-2.72l-0.94-2.69c-0.6-1.8-1.31-3.55-1.97-5.3c-2.73-7-5.88-13.71-9.59-19.85
		c-3.65-6.17-7.95-11.72-12.69-16.33c-2.37-2.31-4.87-4.37-7.47-6.13c-2.61-1.76-5.33-3.2-8.09-4.38
		c-5.55-2.33-11.36-3.46-17.34-3.52c-11.96-0.13-24.51,4-36.37,10.33c-5.94,3.17-11.76,6.9-17.39,11.02
		c-5.66,4.08-11.1,8.63-16.42,13.39c-5.31,4.77-10.44,9.83-15.43,15.07l-3.71,3.98c-1.54,1.6-3.09,3.27-4.72,4.83
		c-1.65,1.57-3.27,3.16-5.02,4.65c-0.87,0.75-1.72,1.52-2.6,2.26l-2.7,2.18c-0.89,0.74-1.82,1.44-2.76,2.13l-2.82,2.07
		c-1.95,1.31-3.86,2.66-5.91,3.87c-4,2.51-8.27,4.72-12.64,6.72c-8.78,3.98-18.31,6.74-28.09,8.06c-4.89,0.7-9.85,0.94-14.79,0.84
		c-4.94-0.1-9.88-0.53-14.73-1.38c-4.85-0.83-9.63-2-14.28-3.51c-4.63-1.53-9.14-3.37-13.49-5.47
		c-17.39-8.49-31.95-21.38-42.84-36.48c-5.47-7.55-9.99-15.7-13.63-24.17c-3.61-8.49-6.28-17.32-8-26.3
		c-0.47-2.24-0.77-4.5-1.12-6.75l-0.4-3.39c-0.14-1.13-0.26-2.26-0.33-3.39l-0.26-3.4l-0.14-3.4c-0.12-2.26-0.07-4.53-0.07-6.79
		c0.1-2.26,0.11-4.51,0.31-6.76l0.25-3.36l0.37-3.35c0.21-2.23,0.61-4.44,0.92-6.65c0.41-2.19,0.79-4.39,1.27-6.56l0.74-3.25
		l0.19-0.81l0.23-0.87l0.47-1.74c0.31-1.16,0.63-2.32,1.02-3.46c0.38-1.14,0.72-2.29,1.14-3.42c1.61-4.52,3.63-8.88,5.89-13.06
		c0.58-1.04,1.13-2.09,1.75-3.1l1.86-3.02c1.31-1.96,2.64-3.92,4.07-5.77c2.84-3.73,5.89-7.26,9.18-10.5
		c6.58-6.48,13.86-12.01,21.64-16.48c7.74-4.53,15.96-7.97,24.37-10.53c4.22-1.25,8.49-2.26,12.8-3.04
		c4.3-0.79,8.66-1.23,13.02-1.49c4.35-0.25,8.72-0.25,13.07,0.05c4.35,0.28,8.68,0.86,12.95,1.75c8.53,1.8,16.87,4.72,24.43,9.03
		c7.55,4.32,14.35,9.89,19.74,16.48c5.41,6.57,9.43,14.04,12.02,21.75C310.68,287.8,310.89,288.46,311.09,289.12z"/>
	<path class="st0" d="M355.35,299.82l-21.03,10.54c-2.58,1.29-5.31-1.45-4.02-4.02l10.74-21.43
		C347.4,288.02,352.49,293.32,355.35,299.82z"/>
</g>
</svg>
