<?xml version="1.0" encoding="utf-8"?>
<!-- Generator: Adobe Illustrator 24.1.1, SVG Export Plug-In . SVG Version: 6.00 Build 0)  -->
<svg version="1.1" id="Layer_1" xmlns="http://www.w3.org/2000/svg" xmlns:xlink="http://www.w3.org/1999/xlink" x="0px" y="0px"
	 viewBox="0 0 841.89 595.28" style="enable-background:new 0 0 841.89 595.28;" xml:space="preserve">
<style type="text/css">
	.st0{fill:#1B4585;}
	.st1{fill:url(#SVGID_1_);}
	.st2{fill:url(#SVGID_2_);}
	.st3{fill:url(#SVGID_3_);}
	.st4{fill:#FFFFFF;}
	.st5{fill:url(#SVGID_4_);}
	.st6{fill:url(#SVGID_5_);}
</style>
<g>
	<g>
		<g>
			<path class="st0" d="M180.29,504.04c-1.67,4.99,1.02,10.39,6.02,12.06c1,0.34,2.02,0.49,3.02,0.49c3.99,0,7.7-2.52,9.04-6.51
				l37.53-112.24c-5.96-2.28-11.8-4.87-17.6-7.48L180.29,504.04z"/>
		</g>
		<g>
			<path class="st0" d="M581.38,324.66l-32.46,97.08c-1.67,4.99,1.02,10.39,6.02,12.06c1,0.34,2.02,0.49,3.02,0.49
				c3.99,0,7.7-2.52,9.04-6.51l35.32-105.65C595.34,322.94,588.34,323.65,581.38,324.66z"/>
		</g>
		<g>
			<path class="st0" d="M648.52,476.2c-3.99,0-7.7-2.52-9.04-6.51l-48.96-146.42c-1.67-4.99,1.02-10.39,6.02-12.06
				c4.99-1.67,10.39,1.02,12.06,6.02l48.96,146.42c1.67,4.99-1.02,10.39-6.02,12.06C650.54,476.05,649.52,476.2,648.52,476.2z"/>
		</g>
		<g>
			<path class="st0" d="M322.25,561.97L264.99,390.7c-6.19,2.02-12.77,2.05-19.46,1.93l58.64,175.39c1.33,3.99,5.05,6.51,9.04,6.51
				c1,0,2.02-0.16,3.02-0.49C321.23,572.36,323.92,566.96,322.25,561.97z"/>
		</g>
		<linearGradient id="SVGID_1_" gradientUnits="userSpaceOnUse" x1="217.3056" y1="227.8425" x2="648.1975" y2="227.8425">
			<stop  offset="0" style="stop-color:#96D7E8"/>
			<stop  offset="1" style="stop-color:#1E94C6"/>
		</linearGradient>
		<polygon class="st1" points="221.31,422.42 648.2,361.8 643.34,83.02 217.31,33.27 		"/>
		<linearGradient id="SVGID_2_" gradientUnits="userSpaceOnUse" x1="208.6859" y1="227.7958" x2="668.4931" y2="227.7958">
			<stop  offset="0" style="stop-color:#1E94C6"/>
			<stop  offset="1" style="stop-color:#96D7E8"/>
		</linearGradient>
		<path class="st2" d="M225.45,396.65c0,5.31,4.72,9.38,9.98,8.6l97.54-14.58c0.01,0.03,0.03,0.06,0.05,0.08l118.85-17.82
			l181.79-27.12c5-0.63,8.74-4.92,8.66-9.96l0-230.99c-0.07-5.02-3.86-9.19-8.84-9.72l-40.91-5.4l-59.06-7.72L235.26,43.43
			c-5.2-0.67-9.81,3.38-9.81,8.62v6.66c-3.22,3.8-5.67,0.06-5.67,2.86l-5.88-20.68c0,0,2.52-10.72,17.84-16.05l10.32-4.04
			c0.16-0.01-0.52,0.82-0.36,0.81c0.03-0.01,0.97-0.82,1-0.82l307.13,44.9l58.26,8.52l58.44,8.51c1.47,0.19,1.73,2.36,0.29,2.71
			c-6.57,1.61-11.11,5.21-11.38,10.28c-0.02,0.31-0.03,0.62-0.02,0.94l0.02,248.72c0.01,0.61,0.06,1.22,0.13,1.81
			c0.75,5.85,5.9,9.94,11.93,11.93c1.42,0.47,1.27,2.51-0.22,2.72l-424.57,72.97l-0.47,0.02l-10.65-4.96
			c-18.33-6.52-17.61-21.95-17.61-21.95l7.02-0.89l-12.32-15.79L225.45,396.65L225.45,396.65z"/>
		<path class="st0" d="M243.39,430.76c-8.96-4.58-16.57-11.74-17.69-20.28c-0.16-1.23-0.25-2.47-0.25-3.74V230.82v-31.77V48.82
			c0-1.27,0.08-2.51,0.25-3.74c1.12-8.54,8.73-15.7,17.69-20.28c1.97-1.01,1.25-3.92-0.84-4.03c0,0-0.19-0.02-0.29-0.01l-0.19,0.04
			l-11.2,2.05l-55.45,10.14c-2.27,0.13-2.79,3.2-0.72,4.12c6.94,3.08,12.76,8.18,13.37,14.64c0.07,0.63,0.09,1.27,0.09,1.92v145.39
			v31.77v171.07c0,0.65-0.03,1.29-0.09,1.93c-0.61,6.45-6.43,11.55-13.37,14.63c-2.07,0.93-1.55,3.99,0.72,4.12l54.75,10.03
			l12.09,2.21c0.37,0.02,0.7-0.04,0.98-0.16C244.77,434.01,245.12,431.65,243.39,430.76z"/>
		<g>
			<path class="st0" d="M644.61,38.3L515.14,167.17c-0.41,0.41-0.84,0.79-1.29,1.14c-0.75,0.6-1.57,1.11-2.43,1.54l-38.86,19.48
				l-12.78,1.57c-2.3,1.15-6.01,5.64-4.86,3.34l0.33-1.25l4.51-17l19.3-38.5c0.69-1.38,1.6-2.64,2.69-3.73L588.1,28.07l1.95-1.95
				c2.93-2.92,7.13-4.19,11.2-3.38l20.84,4.19l20.33,4.09C645.8,31.7,647.05,35.87,644.61,38.3z"/>
		</g>
		<linearGradient id="SVGID_3_" gradientUnits="userSpaceOnUse" x1="454.6926" y1="110.9166" x2="645.8823" y2="110.9166">
			<stop  offset="0" style="stop-color:#074E81"/>
			<stop  offset="1" style="stop-color:#3EBFDE"/>
		</linearGradient>
		<path class="st3" d="M644.61,38.3L515.14,167.17c-0.41,0.41-0.84,0.79-1.29,1.14c-0.75,0.6-1.57,1.11-2.43,1.54l-38.86,19.48
			l-12.78,1.57c-2.3,1.15-6.01,5.64-4.86,3.34l0.33-1.25L622.09,26.94l20.33,4.09C645.8,31.7,647.05,35.87,644.61,38.3z"/>
		<path class="st4" d="M432.97,179.78c0.89,2.9-3.12,4.63-4.69,2.03c-0.29-0.48-0.59-0.96-0.9-1.43c-1.83-2.81-3.75-5.52-5.96-7.93
			c-2.2-2.42-4.52-4.66-7.01-6.64c-2.48-2-5.17-3.67-7.91-5.17c-2.74-1.49-5.6-2.73-8.53-3.72c-5.89-1.91-11.98-3.02-18.13-3.19
			c-12.3-0.39-24.63,2.39-35.66,7.4c-11.03,5.02-20.84,12.29-27.97,21.11c-1.81,2.18-3.4,4.49-4.84,6.84
			c-1.44,2.36-2.71,4.78-3.76,7.27c-1.05,2.49-1.96,5.01-2.62,7.59c-0.19,0.64-0.31,1.3-0.47,1.94c-0.17,0.64-0.29,1.3-0.4,1.95
			l-0.18,0.98l-0.09,0.49l-0.08,0.55l-0.32,2.21c-0.81,5.9-1.07,11.8-0.82,17.62c0.31,5.81,1.07,11.57,2.49,17.12
			c2.71,11.13,7.67,21.57,14.46,30.41c6.76,8.83,15.38,16.01,24.87,20.54c9.5,4.57,19.79,6.34,29.84,5.14
			c10.07-1.17,19.96-5.43,29.01-12.09l1.69-1.26c0.56-0.43,1.1-0.9,1.66-1.34c1.12-0.87,2.18-1.86,3.26-2.8
			c1.08-0.96,2.1-1.99,3.2-3l4-3.87c5.38-5.12,11.03-10.01,16.95-14.66l2.22-1.74l2.27-1.69c1.5-1.14,3.07-2.22,4.61-3.31
			c1.55-1.09,3.15-2.14,4.72-3.2c1.62-1.02,3.2-2.08,4.86-3.05c3.27-1.99,6.65-3.87,10.09-5.65c3.47-1.76,7-3.42,10.67-4.9
			c3.65-1.49,7.39-2.85,11.26-3.97c3.86-1.12,7.8-2.11,11.86-2.76c4.06-0.66,8.2-1.08,12.41-1.18c4.2-0.1,8.47,0.19,12.72,0.84
			c8.48,1.31,16.87,4.33,24.1,8.94c7.29,4.55,13.24,10.64,17.91,17.14c2.35,3.25,4.39,6.66,6.09,10.14c1.72,3.48,3.24,7,4.48,10.57
			c1.25,3.56,2.28,7.16,3.11,10.76c0.86,3.6,1.54,7.19,2.03,10.8c0.23,1.8,0.49,3.6,0.64,5.4l0.27,2.69l0.19,2.69
			c0.23,3.59,0.3,7.16,0.32,10.72c-0.01,1.34-0.03,2.68-0.07,4.01c-0.08,2.99-4.34,3.45-5.08,0.55c-0.32-1.26-0.65-2.52-0.99-3.77
			c-0.89-3.33-1.84-6.63-2.91-9.87l-0.77-2.43l-0.84-2.4c-0.54-1.6-1.17-3.17-1.76-4.74c-2.44-6.25-5.26-12.26-8.58-17.75
			c-3.26-5.51-7.11-10.48-11.34-14.6c-2.12-2.06-4.35-3.9-6.68-5.48c-2.33-1.57-4.76-2.86-7.23-3.92
			c-4.96-2.08-10.16-3.09-15.5-3.15c-10.7-0.12-21.91,3.58-32.52,9.24c-5.32,2.84-10.51,6.17-15.55,9.85
			c-5.06,3.65-9.93,7.72-14.68,11.97c-4.75,4.26-9.33,8.79-13.8,13.48l-3.31,3.56c-1.38,1.43-2.76,2.92-4.22,4.32
			c-1.48,1.4-2.92,2.82-4.49,4.16c-0.77,0.67-1.53,1.36-2.32,2.02l-2.41,1.95c-0.8,0.66-1.63,1.28-2.47,1.9l-2.52,1.85
			c-1.75,1.17-3.45,2.38-5.28,3.46c-3.58,2.24-7.39,4.22-11.31,6.01c-7.85,3.56-16.37,6.03-25.12,7.21
			c-4.37,0.62-8.81,0.84-13.23,0.75c-4.42-0.09-8.84-0.48-13.17-1.24c-4.34-0.74-8.61-1.79-12.76-3.14
			c-4.14-1.37-8.17-3.01-12.06-4.89c-15.55-7.59-28.57-19.12-38.3-32.62c-4.89-6.75-8.93-14.04-12.18-21.61
			c-3.23-7.59-5.62-15.49-7.15-23.51c-0.42-2-0.68-4.02-1-6.04l-0.36-3.03c-0.12-1.01-0.23-2.02-0.3-3.03l-0.23-3.04l-0.13-3.04
			c-0.11-2.02-0.06-4.05-0.06-6.07c0.09-2.02,0.1-4.04,0.28-6.04l0.22-3.01l0.33-2.99c0.19-2,0.54-3.97,0.82-5.95
			c0.37-1.96,0.7-3.93,1.14-5.87l0.66-2.91l0.17-0.73l0.2-0.78l0.42-1.56c0.27-1.04,0.56-2.07,0.91-3.09
			c0.34-1.02,0.64-2.05,1.02-3.05c1.44-4.05,3.25-7.94,5.27-11.68c0.52-0.93,1.01-1.87,1.57-2.77l1.67-2.7
			c1.17-1.76,2.36-3.5,3.64-5.16c2.54-3.33,5.27-6.49,8.21-9.39c5.88-5.79,12.39-10.74,19.35-14.73c6.92-4.05,14.27-7.13,21.79-9.42
			c3.77-1.11,7.59-2.02,11.44-2.72c3.85-0.71,7.75-1.1,11.64-1.33c3.89-0.22,7.8-0.22,11.69,0.05c3.89,0.25,7.76,0.77,11.58,1.56
			c7.63,1.61,15.08,4.22,21.84,8.07c6.75,3.86,12.83,8.84,17.65,14.73c4.84,5.87,8.43,12.55,10.75,19.45
			C432.6,178.6,432.79,179.19,432.97,179.78z"/>
		<path class="st4" d="M472.55,189.34l-18.8,9.42c-2.3,1.15-4.75-1.29-3.6-3.6l9.6-19.16C465.44,178.79,469.99,183.53,472.55,189.34
			z"/>
	</g>
	<linearGradient id="SVGID_4_" gradientUnits="userSpaceOnUse" x1="658.3155" y1="568.6494" x2="520.4835" y2="425.0017">
		<stop  offset="0.1773" style="stop-color:#1E94C6"/>
		<stop  offset="0.6355" style="stop-color:#91D2E5"/>
	</linearGradient>
	<path class="st5" d="M664.94,528.68l-49.51-90.64v-14.29c6.35-0.42,11.4-6.43,11.4-13.87v0c0-7.7-5.41-13.95-12.08-13.95h-39.81
		c-6.67,0-12.08,6.24-12.08,13.95v0c0,7.06,4.56,12.83,10.45,13.76v14.4l-49.51,90.65c-9.66,20.72,3.35,45.84,23.74,45.84h93.67
		C661.6,574.52,674.6,549.4,664.94,528.68z"/>
	<linearGradient id="SVGID_5_" gradientUnits="userSpaceOnUse" x1="624.9299" y1="502.379" x2="571.1848" y2="422.7174">
		<stop  offset="0.2463" style="stop-color:#91D2E5"/>
		<stop  offset="1" style="stop-color:#FFFFFF"/>
	</linearGradient>
	<path class="st6" d="M635.67,496.02c-12.52,9.51-29.14,15.05-46.86,1.39c-11.08-8.53-21.35-11.45-30.31-11.32l24.84-45.5v-25.54
		l-8.47-1.33c-0.71-0.12-1.97-1.5-1.97-3.85c0-2.54,1.45-3.91,2.04-3.91h39.81c0.6,0,2.05,1.37,2.05,3.91
		c0,2.41-1.35,3.81-2.03,3.86l-9.37,0.61v26.25L635.67,496.02z"/>
	<path class="st0" d="M654.43,556.5c-1.9,2.97-6.14,7.99-13.22,7.99h-93.67c-7.08,0-11.32-5.02-13.22-7.99
		c-4.38-6.86-4.96-15.77-1.55-23.31l25.73-47.1c8.96-0.13,19.23,2.79,30.31,11.32c17.73,13.65,34.34,8.12,46.86-1.39l20.3,37.18
		C659.38,540.73,658.79,549.64,654.43,556.5z"/>
	<path class="st0" d="M654.43,556.5c-1.9,2.97-6.14,7.99-13.22,7.99h-93.67c-7.08,0-11.32-5.02-13.22-7.99
		c-4.38-6.86-4.96-15.77-1.55-23.31l25.73-47.1c8.96-0.13,19.23,2.79,30.31,11.32c17.73,13.65,34.34,8.12,46.86-1.39l20.3,37.18
		C659.38,540.73,658.79,549.64,654.43,556.5z"/>
	<circle class="st4" cx="567.35" cy="508.75" r="8.01"/>
	<circle class="st4" cx="627.35" cy="516.76" r="6.63"/>
	<circle class="st0" cx="577.65" cy="473.89" r="6.63"/>
	<circle class="st4" cx="608.61" cy="532.94" r="9.56"/>
	<circle class="st0" cx="605.86" cy="495.64" r="4.69"/>
	<circle class="st0" cx="603.74" cy="463.99" r="8.21"/>
</g>
</svg>
