<?xml version="1.0" encoding="utf-8"?>
<!-- Generator: Adobe Illustrator 24.1.1, SVG Export Plug-In . SVG Version: 6.00 Build 0)  -->
<svg version="1.1" id="Layer_1" xmlns="http://www.w3.org/2000/svg" xmlns:xlink="http://www.w3.org/1999/xlink" x="0px" y="0px"
	 viewBox="87.87 186.32 419.57 469.25" style="enable-background:new 0 0 595.28 841.89;" xml:space="preserve">
<style type="text/css">
	.st0{fill:#1B4686;}
	.st1{fill:url(#SVGID_1_);}
	.st2{fill:url(#SVGID_2_);}
	.st3{fill:url(#SVGID_3_);}
	.st4{fill:#FFFFFF;}
</style>
<g>
	<g>
		<path class="st0" d="M93.72,595.84c-1.41,4.23,0.87,8.81,5.1,10.22c0.85,0.28,1.71,0.42,2.56,0.42c3.38,0,6.53-2.14,7.66-5.52
			l31.8-95.1c-5.05-1.93-10-4.13-14.91-6.34L93.72,595.84z"/>
	</g>
	<g>
		<path class="st0" d="M433.58,443.85l-27.5,82.26c-1.41,4.23,0.87,8.81,5.1,10.22c0.85,0.28,1.71,0.42,2.56,0.42
			c3.38,0,6.53-2.14,7.66-5.52l29.93-89.52C445.41,442.38,439.48,442.99,433.58,443.85z"/>
	</g>
	<g>
		<path class="st0" d="M490.47,572.25c-3.38,0-6.53-2.14-7.66-5.52l-41.48-124.07c-1.41-4.23,0.87-8.81,5.1-10.22
			c4.23-1.41,8.8,0.87,10.22,5.1l41.48,124.07c1.41,4.23-0.87,8.81-5.1,10.22C492.18,572.12,491.32,572.25,490.47,572.25z"/>
	</g>
	<g>
		<path class="st0" d="M214.01,644.92L165.49,499.8c-5.25,1.71-10.82,1.74-16.49,1.63l49.69,148.61c1.13,3.38,4.28,5.52,7.66,5.52
			c0.85,0,1.71-0.13,2.56-0.42C213.14,653.72,215.43,649.15,214.01,644.92z"/>
	</g>
	<linearGradient id="SVGID_1_" gradientUnits="userSpaceOnUse" x1="125.0872" y1="361.8049" x2="490.1967" y2="361.8049">
		<stop  offset="0" style="stop-color:#97D9E9"/>
		<stop  offset="1" style="stop-color:#2195C7"/>
	</linearGradient>
	<polygon class="st1" points="128.48,526.67 490.2,475.31 486.08,239.09 125.09,196.94 	"/>
	<linearGradient id="SVGID_2_" gradientUnits="userSpaceOnUse" x1="117.7834" y1="361.7653" x2="507.3939" y2="361.7653">
		<stop  offset="0" style="stop-color:#2195C7"/>
		<stop  offset="1" style="stop-color:#97D9E9"/>
	</linearGradient>
	<path class="st2" d="M131.99,504.84c0,4.5,4,7.95,8.45,7.28l82.65-12.35c0.01,0.02,0.02,0.05,0.04,0.07l100.7-15.1l154.03-22.98
		c4.23-0.54,7.4-4.17,7.34-8.44l0-195.73c-0.06-4.25-3.27-7.79-7.49-8.24l-34.66-4.58l-50.04-6.54l-252.71-32.7
		c-4.41-0.57-8.31,2.86-8.31,7.3l0,5.65c-2.73,3.22-4.8,0.05-4.8,2.42l-4.98-17.52c0,0,2.13-9.08,15.11-13.6l8.75-3.42
		c0.14-0.01-0.44,0.69-0.3,0.69c0.02-0.01,0.83-0.7,0.85-0.7l260.24,38.04l49.36,7.22l49.52,7.21c1.25,0.16,1.47,2,0.25,2.3
		c-5.57,1.36-9.41,4.41-9.64,8.71c-0.02,0.26-0.02,0.53-0.02,0.8l0.02,210.75c0.01,0.52,0.05,1.03,0.11,1.54
		c0.63,4.95,5,8.42,10.11,10.11c1.2,0.4,1.07,2.13-0.18,2.3l-359.75,61.83l-0.39,0.02l-9.03-4.2c-15.53-5.52-14.93-18.6-14.93-18.6
		l5.95-0.75l-10.44-13.38L131.99,504.84L131.99,504.84z"/>
	<path class="st0" d="M147.19,533.74c-7.59-3.88-14.04-9.95-14.99-17.18c-0.14-1.04-0.21-2.1-0.21-3.17V364.33v-26.92v-127.3
		c0-1.07,0.07-2.13,0.21-3.17c0.95-7.23,7.39-13.3,14.99-17.18c1.67-0.86,1.06-3.32-0.71-3.42c0,0-0.16-0.02-0.25-0.01l-0.16,0.03
		l-9.49,1.74l-46.99,8.6c-1.92,0.11-2.36,2.71-0.61,3.49c5.88,2.61,10.81,6.93,11.33,12.4c0.06,0.54,0.08,1.07,0.08,1.62v123.19
		v26.92v144.95c0,0.55-0.02,1.1-0.08,1.63c-0.52,5.47-5.45,9.79-11.33,12.4c-1.75,0.78-1.31,3.38,0.61,3.49l46.39,8.5l10.24,1.87
		c0.31,0.02,0.59-0.03,0.83-0.14C148.36,536.49,148.65,534.49,147.19,533.74z"/>
	<g>
		<path class="st0" d="M487.15,201.2L377.45,310.4c-0.34,0.34-0.71,0.67-1.1,0.97c-0.64,0.5-1.33,0.94-2.06,1.31l-32.93,16.51
			l-10.83,1.33c-1.95,0.98-5.09,4.78-4.12,2.83l0.28-1.06l3.82-14.4l16.35-32.62c0.59-1.17,1.35-2.23,2.28-3.16l90.11-89.56
			l1.66-1.66c2.48-2.48,6.04-3.55,9.49-2.86l17.66,3.55l17.23,3.47C488.16,195.61,489.23,199.14,487.15,201.2z"/>
	</g>
	<linearGradient id="SVGID_3_" gradientUnits="userSpaceOnUse" x1="326.2334" y1="262.7296" x2="488.235" y2="262.7296">
		<stop  offset="0" style="stop-color:#094E82"/>
		<stop  offset="1" style="stop-color:#40C0DF"/>
	</linearGradient>
	<path class="st3" d="M487.15,201.2L377.45,310.4c-0.34,0.34-0.71,0.67-1.1,0.97c-0.64,0.5-1.33,0.94-2.06,1.31l-32.93,16.51
		l-10.83,1.33c-1.95,0.98-5.09,4.78-4.12,2.83l0.28-1.06l141.37-140.71l17.23,3.47C488.16,195.61,489.23,199.14,487.15,201.2z"/>
	<path class="st4" d="M307.83,321.08c0.76,2.46-2.64,3.92-3.98,1.72c-0.25-0.41-0.5-0.81-0.76-1.21c-1.55-2.38-3.17-4.68-5.05-6.72
		c-1.86-2.05-3.83-3.95-5.94-5.63c-2.1-1.69-4.38-3.11-6.7-4.38c-2.33-1.26-4.74-2.31-7.22-3.15c-4.99-1.62-10.15-2.56-15.36-2.71
		c-10.42-0.33-20.87,2.02-30.22,6.27c-9.34,4.25-17.66,10.42-23.7,17.88c-1.53,1.85-2.88,3.8-4.1,5.8c-1.22,2-2.3,4.05-3.19,6.16
		c-0.89,2.11-1.66,4.25-2.22,6.43c-0.16,0.54-0.26,1.1-0.4,1.64c-0.14,0.54-0.25,1.1-0.34,1.65l-0.15,0.83l-0.08,0.42l-0.07,0.47
		l-0.27,1.87c-0.69,5-0.91,9.99-0.69,14.93c0.27,4.93,0.9,9.8,2.11,14.51c2.3,9.43,6.5,18.28,12.25,25.76
		c5.73,7.48,13.03,13.56,21.08,17.41c8.05,3.88,16.77,5.37,25.28,4.35c8.53-0.99,16.92-4.6,24.58-10.25l1.43-1.07
		c0.47-0.37,0.93-0.76,1.4-1.14c0.95-0.74,1.85-1.57,2.77-2.38c0.92-0.82,1.78-1.68,2.71-2.54l3.39-3.28
		c4.56-4.34,9.34-8.49,14.36-12.42l1.88-1.47l1.93-1.43c1.27-0.96,2.6-1.88,3.91-2.81c1.31-0.93,2.67-1.81,4-2.71
		c1.37-0.87,2.71-1.76,4.12-2.59c2.77-1.69,5.64-3.28,8.55-4.79c2.94-1.49,5.93-2.9,9.04-4.15c3.09-1.26,6.26-2.42,9.54-3.36
		c3.27-0.95,6.61-1.79,10.05-2.34c3.44-0.56,6.95-0.92,10.51-1c3.56-0.08,7.18,0.16,10.78,0.71c7.18,1.11,14.29,3.67,20.42,7.57
		c6.17,3.85,11.22,9.01,15.18,14.52c1.99,2.76,3.72,5.64,5.16,8.6c1.45,2.95,2.75,5.93,3.79,8.95c1.06,3.02,1.93,6.07,2.63,9.12
		c0.73,3.05,1.3,6.09,1.72,9.15c0.19,1.53,0.41,3.05,0.55,4.57l0.23,2.28l0.16,2.28c0.2,3.04,0.25,6.07,0.27,9.08
		c-0.01,1.13-0.03,2.27-0.06,3.4c-0.07,2.53-3.68,2.92-4.3,0.46c-0.27-1.07-0.55-2.13-0.84-3.2c-0.76-2.82-1.56-5.62-2.47-8.36
		l-0.66-2.06l-0.71-2.04c-0.45-1.36-0.99-2.69-1.49-4.02c-2.07-5.3-4.46-10.39-7.27-15.04c-2.77-4.67-6.02-8.88-9.61-12.38
		c-1.8-1.75-3.69-3.31-5.66-4.64c-1.98-1.33-4.04-2.42-6.13-3.32c-4.2-1.76-8.61-2.62-13.14-2.67c-9.06-0.1-18.57,3.03-27.56,7.83
		c-4.5,2.4-8.91,5.23-13.18,8.35c-4.29,3.09-8.41,6.54-12.44,10.14c-4.02,3.61-7.91,7.45-11.69,11.42l-2.81,3.02
		c-1.17,1.21-2.34,2.48-3.58,3.66c-1.25,1.19-2.48,2.39-3.8,3.52c-0.66,0.57-1.3,1.15-1.97,1.71l-2.04,1.65
		c-0.67,0.56-1.38,1.09-2.09,1.61l-2.13,1.57c-1.48,0.99-2.93,2.02-4.48,2.93c-3.03,1.9-6.26,3.57-9.58,5.09
		c-6.65,3.01-13.87,5.11-21.28,6.11c-3.7,0.53-7.46,0.72-11.21,0.64c-3.74-0.07-7.49-0.4-11.16-1.05c-3.68-0.63-7.3-1.52-10.82-2.66
		c-3.51-1.16-6.93-2.55-10.22-4.14c-13.18-6.43-24.21-16.2-32.46-27.64c-4.14-5.72-7.57-11.9-10.32-18.31
		c-2.73-6.43-4.76-13.12-6.06-19.92c-0.35-1.7-0.58-3.41-0.85-5.12l-0.31-2.57c-0.11-0.86-0.19-1.71-0.25-2.57l-0.2-2.57l-0.11-2.57
		c-0.09-1.71-0.05-3.43-0.05-5.14c0.07-1.71,0.08-3.42,0.23-5.12l0.19-2.55l0.28-2.54c0.16-1.69,0.46-3.36,0.7-5.04
		c0.31-1.66,0.6-3.33,0.96-4.97l0.56-2.46l0.14-0.61l0.17-0.66l0.36-1.32c0.23-0.88,0.48-1.76,0.77-2.62
		c0.29-0.86,0.54-1.74,0.86-2.59c1.22-3.43,2.75-6.73,4.46-9.9c0.44-0.78,0.86-1.58,1.33-2.35l1.41-2.29c0.99-1.49,2-2.97,3.09-4.37
		c2.15-2.82,4.46-5.5,6.95-7.96c4.99-4.91,10.5-9.1,16.39-12.48c5.86-3.43,12.09-6.04,18.47-7.98c3.2-0.94,6.43-1.71,9.69-2.3
		c3.26-0.6,6.56-0.93,9.86-1.13c3.3-0.19,6.61-0.19,9.9,0.04c3.3,0.21,6.58,0.65,9.81,1.32c6.46,1.36,12.78,3.57,18.51,6.84
		c5.72,3.27,10.87,7.49,14.96,12.49c4.1,4.98,7.14,10.63,9.11,16.48C307.52,320.08,307.68,320.58,307.83,321.08z"/>
	<path class="st4" d="M341.36,329.18l-15.93,7.98c-1.95,0.98-4.02-1.1-3.05-3.05l8.14-16.23
		C335.34,320.24,339.2,324.25,341.36,329.18z"/>
</g>
</svg>
