<?xml version="1.0" encoding="utf-8"?>
<!-- Generator: Adobe Illustrator 24.1.1, SVG Export Plug-In . SVG Version: 6.00 Build 0)  -->
<svg version="1.1" id="Layer_1" xmlns="http://www.w3.org/2000/svg" xmlns:xlink="http://www.w3.org/1999/xlink" x="0px" y="0px"
	 viewBox="0 0 595.28 841.89" style="enable-background:new 0 0 595.28 841.89;" xml:space="preserve">
<style type="text/css">
	.st0{fill:#1B4686;}
	.st1{fill:url(#SVGID_1_);}
	.st2{fill:url(#SVGID_2_);}
	.st3{fill:url(#SVGID_3_);}
	.st4{fill:#FFFFFF;}
</style>
<g>
	<g>
		<path class="st0" d="M235.21,610.28h-34.44v16.32h28.45v11.11h-28.45v27.59h-12.53v-66.12h46.97V610.28z"/>
		<path class="st0" d="M275.09,665.3l-3.87-12.01h-25.48l-3.79,12.01h-13.47l23.25-66.12h13.6l23.25,66.12H275.09z M258.17,614.33
			l-8.91,27.85h18.42l-8.82-27.85H258.17z"/>
		<path class="st0" d="M292.11,665.3v-66.12h12.53v66.12H292.11z"/>
		<path class="st0" d="M357.6,654.19v11.11h-45.5v-66.12h12.53v55.01H357.6z"/>
		<path class="st0" d="M406.34,605.08l-6.8,9.51c-4.59-3.76-9.86-5.64-15.8-5.64c-3.04,0-5.49,0.73-7.34,2.17
			c-1.85,1.45-2.81,3.35-2.86,5.7c-0.06,1.81,0.41,3.3,1.4,4.48c0.99,1.18,2.31,2.03,3.96,2.56c1.65,0.53,3.53,1.05,5.64,1.55
			c2.11,0.5,4.28,0.94,6.52,1.31c2.24,0.37,4.41,1.02,6.52,1.94c2.11,0.92,3.99,2.02,5.64,3.31c1.65,1.29,2.99,3.14,4.02,5.55
			s1.55,5.3,1.55,8.65c0,6.17-2.4,11.15-7.19,14.94c-4.79,3.79-10.75,5.68-17.86,5.68c-9.53,0-17.66-2.85-24.41-8.57l6.89-9.69
			c4.94,4.65,10.78,6.97,17.52,6.97c3.59,0,6.48-0.85,8.69-2.56c2.21-1.71,3.32-3.97,3.32-6.78c0-2.24-0.65-4.02-1.94-5.34
			c-1.29-1.32-2.99-2.26-5.08-2.82c-2.1-0.56-4.39-1.03-6.89-1.42c-2.5-0.39-4.99-0.92-7.49-1.59c-2.5-0.67-4.79-1.61-6.87-2.82
			c-2.08-1.21-3.77-3.11-5.06-5.73c-1.29-2.61-1.94-5.83-1.94-9.64c0-5.65,2.25-10.26,6.74-13.82c4.49-3.56,9.99-5.34,16.51-5.34
			C392.46,597.67,400,600.14,406.34,605.08z"/>
		<path class="st0" d="M36.81,720.17c3.06,3.11,6.73,4.67,11.02,4.67s8-1.56,11.13-4.69l8.52,8.48c-5.6,4.99-12.14,7.49-19.63,7.49
			c-7.69,0-14.39-2.62-20.1-7.86c-5.71-5.24-8.57-11.64-8.57-19.22c0-7.58,2.85-13.97,8.55-19.18c5.7-5.21,12.4-7.81,20.12-7.81
			c7.52,0,14.06,2.5,19.63,7.49l-8.52,8.48c-3.13-3.13-6.84-4.68-11.13-4.67c-4.29,0.02-7.96,1.56-11.02,4.65
			c-3.06,3.09-4.58,6.77-4.58,11.06S33.76,717.06,36.81,720.17z"/>
		<path class="st0" d="M127.51,709.05c0,7.63-2.83,14.06-8.5,19.26c-5.67,5.21-12.38,7.81-20.12,7.81c-7.69,0-14.39-2.6-20.1-7.81
			c-5.71-5.21-8.57-11.63-8.57-19.26c0-7.58,2.85-13.97,8.55-19.18c5.7-5.21,12.4-7.81,20.1-7.81c7.71,0,14.41,2.6,20.1,7.81
			C124.66,695.08,127.51,701.47,127.51,709.05z M114.46,709.05c0-4.3-1.51-7.99-4.54-11.06c-3.03-3.07-6.71-4.61-11.04-4.61
			c-4.3,0-7.99,1.54-11.04,4.63c-3.06,3.09-4.58,6.77-4.58,11.04c0,4.36,1.53,8.09,4.58,11.17c3.06,3.09,6.74,4.63,11.04,4.63
			c4.36,0,8.05-1.54,11.06-4.63C112.96,717.13,114.46,713.41,114.46,709.05z"/>
		<path class="st0" d="M145.77,734.62h-12.53v-51.05h12.53v7.49h0.17c3.24-6,7.45-9,12.61-9c3.47,0,6.38,0.91,8.72,2.73
			c2.34,1.82,4.1,4.15,5.27,7c1.12-2.53,3.02-4.78,5.7-6.76c2.68-1.98,5.66-2.97,8.93-2.97c5.94,0,10.63,1.85,14.08,5.55
			c3.44,3.7,5.17,8.68,5.17,14.94v32.07H193.9v-32.29c0-2.53-0.85-4.65-2.56-6.37c-1.71-1.72-3.82-2.58-6.35-2.58
			c-2.47,0-4.57,0.86-6.31,2.58c-1.74,1.72-2.6,3.85-2.6,6.37v32.29h-12.53v-32.29c0-2.53-0.85-4.65-2.54-6.37
			c-1.69-1.72-3.8-2.58-6.33-2.58c-2.47,0-4.57,0.86-6.31,2.58c-1.74,1.72-2.6,3.85-2.6,6.37V734.62z"/>
		<path class="st0" d="M226.42,683.56v8.22h0.17c1.64-2.7,3.9-4.99,6.78-6.89c2.88-1.89,6.29-2.84,10.22-2.84
			c7.52,0,13.91,2.59,19.18,7.77c5.27,5.18,7.9,11.62,7.9,19.31c0,7.63-2.63,14.04-7.9,19.22c-5.27,5.18-11.66,7.77-19.18,7.77
			c-6.95,0-12.61-2.97-17-8.91h-0.17v22.47h-12.53v-66.12H226.42z M226.42,709.13c0,4.3,1.51,8,4.54,11.08
			c3.03,3.09,6.71,4.63,11.04,4.63c4.3,0,7.99-1.54,11.04-4.63c3.06-3.08,4.58-6.78,4.58-11.08c0-4.36-1.53-8.08-4.58-11.15
			c-3.06-3.07-6.74-4.61-11.04-4.61c-4.36,0-8.05,1.54-11.06,4.61C227.92,701.05,226.42,704.77,226.42,709.13z"/>
		<path class="st0" d="M331.9,709.05c0,7.63-2.83,14.06-8.5,19.26c-5.67,5.21-12.38,7.81-20.12,7.81c-7.69,0-14.39-2.6-20.1-7.81
			c-5.71-5.21-8.57-11.63-8.57-19.26c0-7.58,2.85-13.97,8.55-19.18c5.7-5.21,12.4-7.81,20.1-7.81c7.71,0,14.41,2.6,20.1,7.81
			C329.05,695.08,331.9,701.47,331.9,709.05z M318.85,709.05c0-4.3-1.51-7.99-4.54-11.06c-3.03-3.07-6.71-4.61-11.04-4.61
			c-4.3,0-7.99,1.54-11.04,4.63c-3.06,3.09-4.58,6.77-4.58,11.04c0,4.36,1.53,8.09,4.58,11.17c3.06,3.09,6.74,4.63,11.04,4.63
			c4.36,0,8.05-1.54,11.06-4.63C317.35,717.13,318.85,713.41,318.85,709.05z"/>
		<path class="st0" d="M350.16,734.62h-12.53v-51.05h12.53v7.83h0.17c3.19-6.23,8.12-9.34,14.81-9.34c5.88,0,10.66,2.02,14.33,6.05
			c3.67,4.03,5.51,9.25,5.51,15.65v30.87h-12.53v-29.96c0-3.13-1.09-5.79-3.27-7.99c-2.18-2.2-4.79-3.29-7.83-3.29
			c-3.13,0-5.78,1.1-7.94,3.29c-2.17,2.2-3.25,4.86-3.25,7.99V734.62z"/>
		<path class="st0" d="M445.96,709.05c0,1.69-0.23,3.57-0.69,5.64h-41.11c0.89,3.04,2.7,5.55,5.42,7.53
			c2.73,1.98,5.71,2.97,8.95,2.97c2.87,0,5.63-0.69,8.29-2.07c2.65-1.38,4.63-3.16,5.92-5.34l8.52,7.49
			c-2.58,3.36-5.87,6.01-9.86,7.94c-3.99,1.94-8.28,2.91-12.87,2.91c-7.75,0-14.33-2.6-19.74-7.81c-5.41-5.21-8.11-11.63-8.11-19.26
			c0-7.63,2.7-14.04,8.11-19.22c5.41-5.18,11.99-7.77,19.74-7.77c7.58,0,14.04,2.62,19.39,7.86
			C443.28,695.15,445.96,701.53,445.96,709.05z M404.24,704.1h28.32c-0.77-3.3-2.45-6.01-5.04-8.11c-2.58-2.11-5.58-3.16-9-3.16
			c-3.36,0-6.39,1.07-9.08,3.21C406.76,698.16,405.02,700.85,404.24,704.1z"/>
		<path class="st0" d="M464.18,734.62h-12.53v-51.05h12.53v7.83h0.17c3.19-6.23,8.12-9.34,14.81-9.34c5.88,0,10.66,2.02,14.33,6.05
			c3.67,4.03,5.51,9.25,5.51,15.65v30.87h-12.53v-29.96c0-3.13-1.09-5.79-3.27-7.99c-2.18-2.2-4.79-3.29-7.83-3.29
			c-3.13,0-5.78,1.1-7.94,3.29c-2.17,2.2-3.25,4.86-3.25,7.99V734.62z"/>
		<path class="st0" d="M503.37,693.81v-10.25h4.69v-11.54h12.53v11.54h8.7v10.25h-8.7v27.33c0,1.06,0.42,1.97,1.27,2.73
			c0.85,0.76,1.83,1.14,2.95,1.14c1.46,0,2.55-0.24,3.27-0.73l2.45,9.9c-2.53,1.29-5.61,1.94-9.26,1.94c-3.93,0-7.12-1.25-9.56-3.74
			c-2.44-2.5-3.66-5.75-3.66-9.77v-28.8H503.37z"/>
		<path class="st0" d="M553.96,725.02c2.76,0.17,4.99-0.22,6.69-1.16s2.56-2.21,2.56-3.79c0-1.46-0.55-2.64-1.64-3.53
			c-1.09-0.89-2.52-1.51-4.28-1.85c-1.76-0.34-3.7-0.65-5.81-0.93c-2.11-0.27-4.23-0.68-6.35-1.23c-2.12-0.54-4.07-1.32-5.83-2.32
			c-1.76-1-3.19-2.57-4.28-4.69c-1.09-2.12-1.64-4.74-1.64-7.83c0-4.88,1.87-8.72,5.62-11.52c3.74-2.8,8.73-4.2,14.96-4.2
			c7.69,0,14.48,2.01,20.36,6.03l-5.47,9.43c-3.76-2.87-8.72-4.32-14.89-4.35c-5.22,0-7.85,1.54-7.88,4.61
			c0,1.46,0.56,2.59,1.68,3.38c1.12,0.79,2.55,1.35,4.28,1.68c1.74,0.33,3.68,0.61,5.83,0.84c2.15,0.23,4.3,0.64,6.44,1.23
			c2.14,0.59,4.07,1.4,5.81,2.43s3.16,2.63,4.28,4.8c1.12,2.17,1.68,4.84,1.68,8.03c0,5.05-2.12,8.99-6.35,11.82
			c-4.23,2.83-9.49,4.24-15.78,4.24c-8.29,0-15.5-1.99-21.61-5.98l6.07-9.99C542.32,723.05,547.51,724.67,553.96,725.02z"/>
	</g>
	<g>
		<path class="st0" d="M92.7,501.71c-1.41,4.23,0.87,8.81,5.1,10.22c0.85,0.28,1.71,0.42,2.56,0.42c3.38,0,6.53-2.14,7.66-5.52
			l31.8-95.1c-5.05-1.93-10-4.13-14.91-6.34L92.7,501.71z"/>
	</g>
	<g>
		<path class="st0" d="M432.56,349.72l-27.5,82.26c-1.41,4.23,0.87,8.81,5.1,10.22c0.85,0.28,1.71,0.42,2.56,0.42
			c3.38,0,6.53-2.14,7.66-5.52l29.93-89.52C444.39,348.26,438.45,348.86,432.56,349.72z"/>
	</g>
	<g>
		<path class="st0" d="M489.44,478.12c-3.38,0-6.53-2.14-7.66-5.52L440.3,348.54c-1.41-4.23,0.87-8.81,5.1-10.22
			c4.23-1.41,8.8,0.87,10.22,5.1l41.48,124.07c1.41,4.23-0.87,8.81-5.1,10.22C491.16,477.99,490.29,478.12,489.44,478.12z"/>
	</g>
	<g>
		<path class="st0" d="M212.99,550.79l-48.52-145.12c-5.25,1.71-10.82,1.74-16.49,1.63l49.69,148.61c1.13,3.38,4.28,5.52,7.66,5.52
			c0.85,0,1.71-0.13,2.56-0.42C212.12,559.6,214.4,555.02,212.99,550.79z"/>
	</g>
	<linearGradient id="SVGID_1_" gradientUnits="userSpaceOnUse" x1="124.0646" y1="267.6789" x2="489.1741" y2="267.6789">
		<stop  offset="0" style="stop-color:#97D9E9"/>
		<stop  offset="1" style="stop-color:#2195C7"/>
	</linearGradient>
	<polygon class="st1" points="127.46,432.55 489.17,381.19 485.06,144.97 124.06,102.81 	"/>
	<linearGradient id="SVGID_2_" gradientUnits="userSpaceOnUse" x1="116.7607" y1="267.6393" x2="506.3712" y2="267.6393">
		<stop  offset="0" style="stop-color:#2195C7"/>
		<stop  offset="1" style="stop-color:#97D9E9"/>
	</linearGradient>
	<path class="st2" d="M130.97,410.72c0,4.5,4,7.95,8.45,7.28l82.65-12.35c0.01,0.02,0.02,0.05,0.04,0.07l100.7-15.1l154.03-22.98
		c4.23-0.54,7.4-4.17,7.34-8.44l0-195.73c-0.06-4.25-3.27-7.79-7.49-8.24l-34.66-4.58l-50.04-6.54l-252.71-32.7
		c-4.41-0.57-8.31,2.86-8.31,7.3l0,5.65c-2.73,3.22-4.8,0.05-4.8,2.42l-4.98-17.52c0,0,2.13-9.08,15.11-13.6l8.75-3.42
		c0.14-0.01-0.44,0.69-0.3,0.69c0.02-0.01,0.83-0.7,0.85-0.7l260.24,38.04l49.36,7.22l49.52,7.21c1.25,0.16,1.47,2,0.25,2.3
		c-5.57,1.36-9.41,4.41-9.64,8.71c-0.02,0.26-0.02,0.53-0.02,0.8l0.02,210.75c0.01,0.52,0.05,1.03,0.11,1.54
		c0.63,4.95,5,8.42,10.11,10.11c1.2,0.4,1.07,2.13-0.18,2.3L145.6,443.03l-0.39,0.02l-9.03-4.2c-15.53-5.52-14.93-18.6-14.93-18.6
		l5.95-0.75l-10.44-13.38L130.97,410.72L130.97,410.72z"/>
	<path class="st0" d="M146.17,439.62c-7.59-3.88-14.04-9.95-14.99-17.18c-0.14-1.04-0.21-2.1-0.21-3.17V270.21v-26.92v-127.3
		c0-1.07,0.07-2.13,0.21-3.17c0.95-7.23,7.39-13.3,14.99-17.18c1.67-0.86,1.06-3.32-0.71-3.42c0,0-0.16-0.02-0.25-0.01l-0.16,0.03
		l-9.49,1.74l-46.99,8.6c-1.92,0.11-2.36,2.71-0.61,3.49c5.88,2.61,10.81,6.93,11.33,12.4c0.06,0.54,0.08,1.07,0.08,1.62v123.19
		v26.92v144.95c0,0.55-0.02,1.1-0.08,1.63c-0.52,5.47-5.45,9.79-11.33,12.4c-1.75,0.78-1.31,3.38,0.61,3.49l46.39,8.5l10.24,1.87
		c0.31,0.02,0.59-0.03,0.83-0.14C147.34,442.37,147.63,440.37,146.17,439.62z"/>
	<g>
		<path class="st0" d="M486.13,107.08l-109.7,109.19c-0.34,0.34-0.71,0.67-1.1,0.97c-0.64,0.5-1.33,0.94-2.06,1.31l-32.93,16.51
			l-10.83,1.33c-1.95,0.98-5.09,4.78-4.12,2.83l0.28-1.06l3.82-14.4l16.35-32.62c0.59-1.17,1.35-2.23,2.28-3.16l90.11-89.56
			l1.66-1.66c2.48-2.48,6.04-3.55,9.49-2.86l17.66,3.55l17.23,3.47C487.14,101.48,488.2,105.02,486.13,107.08z"/>
	</g>
	<linearGradient id="SVGID_3_" gradientUnits="userSpaceOnUse" x1="325.2107" y1="168.6036" x2="487.2123" y2="168.6036">
		<stop  offset="0" style="stop-color:#094E82"/>
		<stop  offset="1" style="stop-color:#40C0DF"/>
	</linearGradient>
	<path class="st3" d="M486.13,107.08l-109.7,109.19c-0.34,0.34-0.71,0.67-1.1,0.97c-0.64,0.5-1.33,0.94-2.06,1.31l-32.93,16.51
		l-10.83,1.33c-1.95,0.98-5.09,4.78-4.12,2.83l0.28-1.06L467.05,97.45l17.23,3.47C487.14,101.48,488.2,105.02,486.13,107.08z"/>
	<path class="st4" d="M306.81,226.95c0.76,2.46-2.64,3.92-3.98,1.72c-0.25-0.41-0.5-0.81-0.76-1.21c-1.55-2.38-3.17-4.68-5.05-6.72
		c-1.86-2.05-3.83-3.95-5.94-5.63c-2.1-1.69-4.38-3.11-6.7-4.38c-2.33-1.26-4.74-2.31-7.22-3.15c-4.99-1.62-10.15-2.56-15.36-2.71
		c-10.42-0.33-20.87,2.02-30.22,6.27c-9.34,4.25-17.66,10.42-23.7,17.88c-1.53,1.85-2.88,3.8-4.1,5.8c-1.22,2-2.3,4.05-3.19,6.16
		c-0.89,2.11-1.66,4.25-2.22,6.43c-0.16,0.54-0.26,1.1-0.4,1.64c-0.14,0.54-0.25,1.1-0.34,1.65l-0.15,0.83l-0.08,0.42l-0.07,0.47
		l-0.27,1.87c-0.69,5-0.91,9.99-0.69,14.93c0.27,4.93,0.9,9.8,2.11,14.51c2.3,9.43,6.5,18.28,12.25,25.76
		c5.73,7.48,13.03,13.56,21.08,17.41c8.05,3.88,16.77,5.37,25.28,4.35c8.53-0.99,16.92-4.6,24.58-10.25l1.43-1.07
		c0.47-0.37,0.93-0.76,1.4-1.14c0.95-0.74,1.85-1.57,2.77-2.38c0.92-0.82,1.78-1.68,2.71-2.54l3.39-3.28
		c4.56-4.34,9.34-8.49,14.36-12.42l1.88-1.47l1.93-1.43c1.27-0.96,2.6-1.88,3.91-2.81c1.31-0.93,2.67-1.81,4-2.71
		c1.37-0.87,2.71-1.76,4.12-2.59c2.77-1.69,5.64-3.28,8.55-4.79c2.94-1.49,5.93-2.9,9.04-4.15c3.09-1.26,6.26-2.42,9.54-3.36
		c3.27-0.95,6.61-1.79,10.05-2.34c3.44-0.56,6.95-0.92,10.51-1c3.56-0.08,7.18,0.16,10.78,0.71c7.18,1.11,14.29,3.67,20.42,7.57
		c6.17,3.85,11.22,9.01,15.18,14.52c1.99,2.76,3.72,5.64,5.16,8.6c1.45,2.95,2.75,5.93,3.79,8.95c1.06,3.02,1.93,6.07,2.63,9.12
		c0.73,3.05,1.3,6.09,1.72,9.15c0.19,1.53,0.41,3.05,0.55,4.57l0.23,2.28l0.16,2.28c0.2,3.04,0.25,6.07,0.27,9.08
		c-0.01,1.13-0.03,2.27-0.06,3.4c-0.07,2.53-3.68,2.92-4.3,0.46c-0.27-1.07-0.55-2.13-0.84-3.2c-0.76-2.82-1.56-5.62-2.47-8.36
		l-0.66-2.06l-0.71-2.04c-0.45-1.36-0.99-2.69-1.49-4.02c-2.07-5.3-4.46-10.39-7.27-15.04c-2.77-4.67-6.02-8.88-9.61-12.38
		c-1.8-1.75-3.69-3.31-5.66-4.64c-1.98-1.33-4.04-2.42-6.13-3.32c-4.2-1.76-8.61-2.62-13.14-2.67c-9.06-0.1-18.57,3.03-27.56,7.83
		c-4.5,2.4-8.91,5.23-13.18,8.35c-4.29,3.09-8.41,6.54-12.44,10.14c-4.02,3.61-7.91,7.45-11.69,11.42l-2.81,3.02
		c-1.17,1.21-2.34,2.48-3.58,3.66c-1.25,1.19-2.48,2.39-3.8,3.52c-0.66,0.57-1.3,1.15-1.97,1.71l-2.04,1.65
		c-0.67,0.56-1.38,1.09-2.09,1.61l-2.13,1.57c-1.48,0.99-2.93,2.02-4.48,2.93c-3.03,1.9-6.26,3.57-9.58,5.09
		c-6.65,3.01-13.87,5.11-21.28,6.11c-3.7,0.53-7.46,0.72-11.21,0.64c-3.74-0.07-7.49-0.4-11.16-1.05c-3.68-0.63-7.3-1.52-10.82-2.66
		c-3.51-1.16-6.93-2.55-10.22-4.14c-13.18-6.43-24.21-16.2-32.46-27.64c-4.14-5.72-7.57-11.9-10.32-18.31
		c-2.73-6.43-4.76-13.12-6.06-19.92c-0.35-1.7-0.58-3.41-0.85-5.12l-0.31-2.57c-0.11-0.86-0.19-1.71-0.25-2.57l-0.2-2.57l-0.11-2.57
		c-0.09-1.71-0.05-3.43-0.05-5.14c0.07-1.71,0.08-3.42,0.23-5.12l0.19-2.55l0.28-2.54c0.16-1.69,0.46-3.36,0.7-5.04
		c0.31-1.66,0.6-3.33,0.96-4.97l0.56-2.46l0.14-0.61l0.17-0.66l0.36-1.32c0.23-0.88,0.48-1.76,0.77-2.62
		c0.29-0.86,0.54-1.74,0.86-2.59c1.22-3.43,2.75-6.73,4.46-9.9c0.44-0.78,0.86-1.58,1.33-2.35l1.41-2.29c0.99-1.49,2-2.97,3.09-4.37
		c2.15-2.82,4.46-5.5,6.95-7.96c4.99-4.91,10.5-9.1,16.39-12.48c5.86-3.43,12.09-6.04,18.47-7.98c3.2-0.94,6.43-1.71,9.69-2.3
		c3.26-0.6,6.56-0.93,9.86-1.13c3.3-0.19,6.61-0.19,9.9,0.04c3.3,0.21,6.58,0.65,9.81,1.32c6.46,1.36,12.78,3.57,18.51,6.84
		c5.72,3.27,10.87,7.49,14.96,12.49c4.1,4.98,7.14,10.63,9.11,16.48C306.49,225.95,306.65,226.45,306.81,226.95z"/>
	<path class="st4" d="M340.34,235.05l-15.93,7.98c-1.95,0.98-4.02-1.1-3.05-3.05l8.14-16.23
		C334.32,226.12,338.17,230.13,340.34,235.05z"/>
</g>
</svg>
