<?xml version="1.0" encoding="utf-8"?>
<!-- Generator: Adobe Illustrator 24.1.1, SVG Export Plug-In . SVG Version: 6.00 Build 0)  -->
<svg version="1.1" id="Layer_1" xmlns="http://www.w3.org/2000/svg" xmlns:xlink="http://www.w3.org/1999/xlink" x="0px" y="0px"
	 viewBox="0 0 841.89 595.28" style="enable-background:new 0 0 841.89 595.28;" xml:space="preserve">
<style type="text/css">
	.st0{fill:#1B4585;}
	.st1{fill:url(#SVGID_1_);}
	.st2{fill:url(#SVGID_2_);}
	.st3{fill:url(#SVGID_3_);}
	.st4{fill:#FFFFFF;}
	.st5{fill:url(#SVGID_4_);}
	.st6{fill:url(#SVGID_5_);}
</style>
<g>
	<g>
		<g>
			<path class="st0" d="M48.75,353.64c-0.45,1.35,0.28,2.82,1.63,3.27c0.27,0.09,0.55,0.13,0.82,0.13c1.08,0,2.09-0.68,2.45-1.77
				l10.18-30.45c-1.62-0.62-3.2-1.32-4.77-2.03L48.75,353.64z"/>
		</g>
		<g>
			<path class="st0" d="M157.57,304.97l-8.81,26.34c-0.45,1.35,0.28,2.82,1.63,3.27c0.27,0.09,0.55,0.13,0.82,0.13
				c1.08,0,2.09-0.68,2.45-1.77l9.58-28.66C161.36,304.5,159.46,304.7,157.57,304.97z"/>
		</g>
		<g>
			<path class="st0" d="M175.79,346.08c-1.08,0-2.09-0.68-2.45-1.77l-13.28-39.73c-0.45-1.35,0.28-2.82,1.63-3.27
				c1.35-0.45,2.82,0.28,3.27,1.63l13.28,39.73c0.45,1.35-0.28,2.82-1.63,3.27C176.34,346.04,176.06,346.08,175.79,346.08z"/>
		</g>
		<g>
			<path class="st0" d="M87.27,369.35l-15.54-46.47c-1.68,0.55-3.47,0.56-5.28,0.52l15.91,47.58c0.36,1.08,1.37,1.77,2.45,1.77
				c0.27,0,0.55-0.04,0.82-0.13C86.99,372.17,87.72,370.71,87.27,369.35z"/>
		</g>
		<linearGradient id="SVGID_1_" gradientUnits="userSpaceOnUse" x1="58.798" y1="278.7019" x2="175.7018" y2="278.7019">
			<stop  offset="0" style="stop-color:#96D7E8"/>
			<stop  offset="1" style="stop-color:#1E94C6"/>
		</linearGradient>
		<polygon class="st1" points="59.88,331.49 175.7,315.05 174.38,239.41 58.8,225.91 		"/>
		<linearGradient id="SVGID_2_" gradientUnits="userSpaceOnUse" x1="56.4594" y1="278.6892" x2="181.2081" y2="278.6892">
			<stop  offset="0" style="stop-color:#1E94C6"/>
			<stop  offset="1" style="stop-color:#96D7E8"/>
		</linearGradient>
		<path class="st2" d="M61.01,324.5c0,1.44,1.28,2.55,2.71,2.33l26.46-3.95c0,0.01,0.01,0.02,0.01,0.02l32.24-4.84l49.32-7.36
			c1.36-0.17,2.37-1.34,2.35-2.7l0-62.67c-0.02-1.36-1.05-2.49-2.4-2.64l-11.1-1.47l-16.02-2.09l-80.92-10.47
			c-1.41-0.18-2.66,0.92-2.66,2.34v1.81c-0.87,1.03-1.54,0.02-1.54,0.78l-1.59-5.61c0,0,0.68-2.91,4.84-4.36l2.8-1.1
			c0.04,0-0.14,0.22-0.1,0.22c0.01,0,0.26-0.22,0.27-0.22l83.33,12.18l15.81,2.31l15.85,2.31c0.4,0.05,0.47,0.64,0.08,0.74
			c-1.78,0.44-3.01,1.41-3.09,2.79c-0.01,0.08-0.01,0.17-0.01,0.26l0.01,67.48c0,0.17,0.02,0.33,0.04,0.49
			c0.2,1.59,1.6,2.7,3.24,3.24c0.38,0.13,0.34,0.68-0.06,0.74l-115.19,19.8l-0.13,0.01l-2.89-1.35c-4.97-1.77-4.78-5.96-4.78-5.96
			l1.9-0.24l-3.34-4.28L61.01,324.5L61.01,324.5z"/>
		<path class="st0" d="M65.87,333.75c-2.43-1.24-4.49-3.19-4.8-5.5c-0.04-0.33-0.07-0.67-0.07-1.01v-47.73v-8.62v-40.76
			c0-0.34,0.02-0.68,0.07-1.01c0.3-2.32,2.37-4.26,4.8-5.5c0.54-0.27,0.34-1.06-0.23-1.09c0,0-0.05-0.01-0.08,0l-0.05,0.01
			l-3.04,0.56l-15.04,2.75c-0.62,0.04-0.76,0.87-0.19,1.12c1.88,0.84,3.46,2.22,3.63,3.97c0.02,0.17,0.03,0.34,0.03,0.52v39.44v8.62
			v46.41c0,0.18-0.01,0.35-0.03,0.52c-0.17,1.75-1.75,3.13-3.63,3.97c-0.56,0.25-0.42,1.08,0.19,1.12l14.85,2.72l3.28,0.6
			c0.1,0.01,0.19-0.01,0.27-0.04C66.25,334.64,66.34,333.99,65.87,333.75z"/>
		<g>
			<path class="st0" d="M174.73,227.28l-35.13,34.96c-0.11,0.11-0.23,0.22-0.35,0.31c-0.2,0.16-0.43,0.3-0.66,0.42l-10.54,5.29
				l-3.47,0.43c-0.62,0.31-1.63,1.53-1.32,0.91l0.09-0.34l1.22-4.61l5.24-10.44c0.19-0.37,0.43-0.72,0.73-1.01l28.85-28.68
				l0.53-0.53c0.8-0.79,1.94-1.14,3.04-0.92l5.65,1.14l5.52,1.11C175.05,225.49,175.39,226.62,174.73,227.28z"/>
		</g>
		<linearGradient id="SVGID_3_" gradientUnits="userSpaceOnUse" x1="123.2026" y1="246.9791" x2="175.0736" y2="246.9791">
			<stop  offset="0" style="stop-color:#074E81"/>
			<stop  offset="1" style="stop-color:#3EBFDE"/>
		</linearGradient>
		<path class="st3" d="M174.73,227.28l-35.13,34.96c-0.11,0.11-0.23,0.22-0.35,0.31c-0.2,0.16-0.43,0.3-0.66,0.42l-10.54,5.29
			l-3.47,0.43c-0.62,0.31-1.63,1.53-1.32,0.91l0.09-0.34l45.27-45.05l5.52,1.11C175.05,225.49,175.39,226.62,174.73,227.28z"/>
		<path class="st4" d="M117.31,265.66c0.24,0.79-0.85,1.26-1.27,0.55c-0.08-0.13-0.16-0.26-0.24-0.39c-0.5-0.76-1.02-1.5-1.62-2.15
			c-0.6-0.66-1.23-1.26-1.9-1.8c-0.67-0.54-1.4-1-2.15-1.4c-0.74-0.4-1.52-0.74-2.31-1.01c-1.6-0.52-3.25-0.82-4.92-0.87
			c-3.34-0.11-6.68,0.65-9.68,2.01c-2.99,1.36-5.65,3.34-7.59,5.73c-0.49,0.59-0.92,1.22-1.31,1.86c-0.39,0.64-0.74,1.3-1.02,1.97
			c-0.29,0.67-0.53,1.36-0.71,2.06c-0.05,0.17-0.08,0.35-0.13,0.53c-0.05,0.17-0.08,0.35-0.11,0.53l-0.05,0.27l-0.02,0.13
			l-0.02,0.15l-0.09,0.6c-0.22,1.6-0.29,3.2-0.22,4.78c0.08,1.58,0.29,3.14,0.67,4.65c0.74,3.02,2.08,5.85,3.92,8.25
			c1.84,2.4,4.17,4.34,6.75,5.57c2.58,1.24,5.37,1.72,8.1,1.39c2.73-0.32,5.42-1.47,7.87-3.28l0.46-0.34
			c0.15-0.12,0.3-0.24,0.45-0.36c0.3-0.24,0.59-0.5,0.89-0.76c0.29-0.26,0.57-0.54,0.87-0.81l1.08-1.05
			c1.46-1.39,2.99-2.72,4.6-3.98l0.6-0.47l0.62-0.46c0.41-0.31,0.83-0.6,1.25-0.9c0.42-0.3,0.85-0.58,1.28-0.87
			c0.44-0.28,0.87-0.56,1.32-0.83c0.89-0.54,1.8-1.05,2.74-1.53c0.94-0.48,1.9-0.93,2.89-1.33c0.99-0.4,2-0.77,3.05-1.08
			c1.05-0.3,2.12-0.57,3.22-0.75c1.1-0.18,2.23-0.29,3.37-0.32c1.14-0.03,2.3,0.05,3.45,0.23c2.3,0.35,4.58,1.18,6.54,2.42
			c1.98,1.23,3.59,2.89,4.86,4.65c0.64,0.88,1.19,1.81,1.65,2.75c0.47,0.94,0.88,1.9,1.21,2.87c0.34,0.97,0.62,1.94,0.84,2.92
			c0.23,0.98,0.42,1.95,0.55,2.93c0.06,0.49,0.13,0.98,0.17,1.46l0.07,0.73l0.05,0.73c0.06,0.97,0.08,1.94,0.09,2.91
			c0,0.36-0.01,0.73-0.02,1.09c-0.02,0.81-1.18,0.93-1.38,0.15c-0.09-0.34-0.18-0.68-0.27-1.02c-0.24-0.9-0.5-1.8-0.79-2.68
			l-0.21-0.66l-0.23-0.65c-0.15-0.44-0.32-0.86-0.48-1.29c-0.66-1.7-1.43-3.33-2.33-4.82c-0.89-1.5-1.93-2.84-3.08-3.96
			c-0.57-0.56-1.18-1.06-1.81-1.49c-0.63-0.43-1.29-0.78-1.96-1.06c-1.35-0.56-2.76-0.84-4.21-0.85c-2.9-0.03-5.94,0.97-8.82,2.51
			c-1.44,0.77-2.85,1.67-4.22,2.67c-1.37,0.99-2.69,2.09-3.98,3.25c-1.29,1.16-2.53,2.38-3.74,3.66l-0.9,0.97
			c-0.37,0.39-0.75,0.79-1.15,1.17c-0.4,0.38-0.79,0.77-1.22,1.13c-0.21,0.18-0.42,0.37-0.63,0.55l-0.65,0.53
			c-0.22,0.18-0.44,0.35-0.67,0.52l-0.68,0.5c-0.47,0.32-0.94,0.65-1.43,0.94c-0.97,0.61-2.01,1.14-3.07,1.63
			c-2.13,0.97-4.44,1.64-6.81,1.96c-1.19,0.17-2.39,0.23-3.59,0.2c-1.2-0.02-2.4-0.13-3.57-0.34c-1.18-0.2-2.34-0.49-3.46-0.85
			c-1.12-0.37-2.22-0.82-3.27-1.33c-4.22-2.06-7.75-5.19-10.39-8.85c-1.33-1.83-2.42-3.81-3.31-5.86c-0.88-2.06-1.52-4.2-1.94-6.38
			c-0.11-0.54-0.19-1.09-0.27-1.64l-0.1-0.82c-0.03-0.27-0.06-0.55-0.08-0.82l-0.06-0.82l-0.04-0.82c-0.03-0.55-0.02-1.1-0.02-1.65
			c0.02-0.55,0.03-1.09,0.07-1.64l0.06-0.82l0.09-0.81c0.05-0.54,0.15-1.08,0.22-1.61c0.1-0.53,0.19-1.07,0.31-1.59l0.18-0.79
			l0.05-0.2l0.06-0.21l0.11-0.42c0.07-0.28,0.15-0.56,0.25-0.84c0.09-0.28,0.17-0.56,0.28-0.83c0.39-1.1,0.88-2.15,1.43-3.17
			c0.14-0.25,0.28-0.51,0.43-0.75l0.45-0.73c0.32-0.48,0.64-0.95,0.99-1.4c0.69-0.9,1.43-1.76,2.23-2.55c1.6-1.57,3.36-2.91,5.25-4
			c1.88-1.1,3.87-1.93,5.91-2.55c1.02-0.3,2.06-0.55,3.1-0.74c1.04-0.19,2.1-0.3,3.16-0.36c1.06-0.06,2.12-0.06,3.17,0.01
			c1.06,0.07,2.11,0.21,3.14,0.42c2.07,0.44,4.09,1.14,5.93,2.19c1.83,1.05,3.48,2.4,4.79,4c1.31,1.59,2.29,3.4,2.92,5.28
			C117.21,265.34,117.26,265.5,117.31,265.66z"/>
		<path class="st4" d="M128.05,268.26l-5.1,2.56c-0.62,0.31-1.29-0.35-0.98-0.98l2.61-5.2
			C126.12,265.39,127.35,266.68,128.05,268.26z"/>
	</g>
	<linearGradient id="SVGID_4_" gradientUnits="userSpaceOnUse" x1="178.4468" y1="371.165" x2="141.0521" y2="332.1924">
		<stop  offset="0.1773" style="stop-color:#1E94C6"/>
		<stop  offset="0.6355" style="stop-color:#91D2E5"/>
	</linearGradient>
	<path class="st5" d="M180.24,360.32l-13.43-24.59v-3.88c1.72-0.11,3.09-1.75,3.09-3.76v0c0-2.09-1.47-3.78-3.28-3.78h-10.8
		c-1.81,0-3.28,1.69-3.28,3.78v0c0,1.91,1.24,3.48,2.84,3.73v3.91l-13.43,24.59c-2.62,5.62,0.91,12.44,6.44,12.44h25.41
		C179.34,372.76,182.87,365.94,180.24,360.32z"/>
	<linearGradient id="SVGID_5_" gradientUnits="userSpaceOnUse" x1="169.3891" y1="353.1854" x2="154.8077" y2="331.5727">
		<stop  offset="0.2463" style="stop-color:#91D2E5"/>
		<stop  offset="1" style="stop-color:#FFFFFF"/>
	</linearGradient>
	<path class="st6" d="M172.3,351.46c-3.4,2.58-7.91,4.08-12.71,0.38c-3.01-2.31-5.79-3.11-8.22-3.07l6.74-12.34v-6.93l-2.3-0.36
		c-0.19-0.03-0.53-0.41-0.53-1.04c0-0.69,0.39-1.06,0.55-1.06h10.8c0.16,0,0.56,0.37,0.56,1.06c0,0.65-0.37,1.03-0.55,1.05
		l-2.54,0.17v7.12L172.3,351.46z"/>
	<path class="st0" d="M177.39,367.87c-0.52,0.81-1.66,2.17-3.59,2.17h-25.41c-1.92,0-3.07-1.36-3.59-2.17
		c-1.19-1.86-1.34-4.28-0.42-6.32l6.98-12.78c2.43-0.04,5.22,0.76,8.22,3.07c4.81,3.7,9.32,2.2,12.71-0.38l5.51,10.09
		C178.74,363.59,178.58,366.01,177.39,367.87z"/>
	<path class="st0" d="M177.39,367.87c-0.52,0.81-1.66,2.17-3.59,2.17h-25.41c-1.92,0-3.07-1.36-3.59-2.17
		c-1.19-1.86-1.34-4.28-0.42-6.32l6.98-12.78c2.43-0.04,5.22,0.76,8.22,3.07c4.81,3.7,9.32,2.2,12.71-0.38l5.51,10.09
		C178.74,363.59,178.58,366.01,177.39,367.87z"/>
	<circle class="st4" cx="153.77" cy="354.91" r="2.17"/>
	<circle class="st4" cx="170.05" cy="357.09" r="1.8"/>
	<circle class="st0" cx="156.56" cy="345.46" r="1.8"/>
	<circle class="st4" cx="164.96" cy="361.48" r="2.59"/>
	<circle class="st0" cx="164.21" cy="351.36" r="1.27"/>
	<circle class="st0" cx="163.64" cy="342.77" r="2.23"/>
	<g>
		<g>
			<path class="st0" d="M241.33,276.68h-25.25v11.96h20.86v8.14h-20.86v20.23h-9.19v-48.48h34.44V276.68z"/>
			<path class="st0" d="M270.57,317.02l-2.84-8.81h-18.69l-2.78,8.81h-9.88l17.05-48.48h9.97l17.05,48.48H270.57z M258.17,279.65
				l-6.53,20.42h13.51l-6.47-20.42H258.17z"/>
			<path class="st0" d="M283.05,317.02v-48.48h9.19v48.48H283.05z"/>
			<path class="st0" d="M331.07,308.88v8.14H297.7v-48.48h9.19v40.34H331.07z"/>
			<path class="st0" d="M366.81,272.86l-4.99,6.98c-3.37-2.76-7.23-4.14-11.58-4.14c-2.23,0-4.02,0.53-5.38,1.59
				c-1.36,1.06-2.06,2.46-2.1,4.18c-0.04,1.33,0.3,2.42,1.03,3.28c0.73,0.86,1.69,1.49,2.9,1.88c1.21,0.39,2.59,0.77,4.13,1.14
				c1.55,0.37,3.14,0.69,4.78,0.96c1.64,0.27,3.24,0.75,4.78,1.42c1.55,0.67,2.92,1.48,4.14,2.43c1.21,0.95,2.19,2.3,2.95,4.07
				c0.76,1.77,1.14,3.88,1.14,6.34c0,4.52-1.76,8.18-5.27,10.95c-3.51,2.78-7.88,4.17-13.1,4.17c-6.99,0-12.95-2.09-17.9-6.28
				l5.05-7.1c3.62,3.41,7.9,5.11,12.85,5.11c2.63,0,4.76-0.63,6.38-1.88c1.62-1.25,2.43-2.91,2.43-4.97c0-1.64-0.47-2.95-1.42-3.91
				c-0.95-0.97-2.19-1.66-3.72-2.07c-1.54-0.41-3.22-0.76-5.05-1.04c-1.83-0.28-3.66-0.67-5.49-1.17c-1.83-0.49-3.51-1.18-5.03-2.07
				c-1.53-0.88-2.76-2.28-3.71-4.2c-0.95-1.91-1.42-4.27-1.42-7.07c0-4.15,1.65-7.52,4.94-10.13c3.29-2.61,7.33-3.91,12.11-3.91
				C356.64,267.43,362.16,269.24,366.81,272.86z"/>
			<path class="st0" d="M399.58,306.43c2.24,2.28,4.93,3.42,8.08,3.42c3.15,0,5.87-1.15,8.16-3.44l6.25,6.22
				c-4.1,3.66-8.9,5.49-14.39,5.49c-5.64,0-10.55-1.92-14.74-5.76c-4.19-3.84-6.28-8.54-6.28-14.09s2.09-10.24,6.27-14.06
				c4.18-3.82,9.1-5.73,14.76-5.73c5.51,0,10.31,1.83,14.39,5.49l-6.25,6.22c-2.29-2.29-5.01-3.44-8.16-3.42
				c-3.15,0.01-5.84,1.15-8.08,3.41c-2.24,2.26-3.36,4.97-3.36,8.11C396.22,301.43,397.34,304.15,399.58,306.43z"/>
			<path class="st0" d="M466.08,298.27c0,5.6-2.08,10.31-6.23,14.13c-4.16,3.82-9.07,5.73-14.76,5.73c-5.64,0-10.55-1.91-14.74-5.73
				c-4.19-3.82-6.28-8.53-6.28-14.13c0-5.56,2.09-10.24,6.27-14.06c4.18-3.82,9.09-5.73,14.74-5.73s10.56,1.91,14.74,5.73
				C463.99,288.03,466.08,292.72,466.08,298.27z M456.52,298.27c0-3.16-1.11-5.86-3.33-8.11c-2.22-2.25-4.92-3.38-8.1-3.38
				c-3.16,0-5.86,1.13-8.1,3.39c-2.24,2.26-3.36,4.96-3.36,8.1c0,3.2,1.12,5.93,3.36,8.19c2.24,2.26,4.94,3.39,8.1,3.39
				c3.2,0,5.9-1.13,8.11-3.39C455.41,304.2,456.52,301.47,456.52,298.27z"/>
			<path class="st0" d="M479.47,317.02h-9.19v-37.44h9.19v5.49h0.13c2.38-4.4,5.46-6.6,9.25-6.6c2.55,0,4.68,0.67,6.39,2
				c1.71,1.34,3,3.05,3.87,5.13c0.82-1.85,2.21-3.5,4.18-4.96c1.97-1.45,4.15-2.18,6.55-2.18c4.36,0,7.8,1.36,10.32,4.07
				s3.79,6.37,3.79,10.95v23.52h-9.19v-23.67c0-1.85-0.63-3.41-1.88-4.67c-1.25-1.26-2.8-1.89-4.66-1.89
				c-1.81,0-3.35,0.63-4.62,1.89c-1.27,1.26-1.91,2.82-1.91,4.67v23.67h-9.19v-23.67c0-1.85-0.62-3.41-1.86-4.67
				c-1.24-1.26-2.79-1.89-4.64-1.89c-1.81,0-3.35,0.63-4.62,1.89c-1.27,1.26-1.91,2.82-1.91,4.67V317.02z"/>
			<path class="st0" d="M538.61,279.59v6.03h0.13c1.2-1.98,2.86-3.66,4.97-5.05c2.11-1.39,4.61-2.08,7.5-2.08
				c5.51,0,10.2,1.9,14.06,5.7c3.86,3.8,5.79,8.52,5.79,14.16c0,5.6-1.93,10.3-5.79,14.09c-3.86,3.8-8.55,5.7-14.06,5.7
				c-5.09,0-9.25-2.18-12.47-6.53h-0.13v16.48h-9.19v-48.48H538.61z M538.61,298.33c0,3.16,1.11,5.87,3.33,8.13
				c2.22,2.26,4.92,3.39,8.1,3.39c3.16,0,5.86-1.13,8.1-3.39c2.24-2.26,3.36-4.97,3.36-8.13c0-3.2-1.12-5.92-3.36-8.18
				c-2.24-2.25-4.94-3.38-8.1-3.38c-3.2,0-5.9,1.13-8.11,3.38C539.71,292.41,538.61,295.14,538.61,298.33z"/>
			<path class="st0" d="M615.95,298.27c0,5.6-2.08,10.31-6.23,14.13c-4.16,3.82-9.07,5.73-14.76,5.73c-5.64,0-10.55-1.91-14.74-5.73
				c-4.19-3.82-6.28-8.53-6.28-14.13c0-5.56,2.09-10.24,6.27-14.06c4.18-3.82,9.09-5.73,14.74-5.73c5.65,0,10.56,1.91,14.74,5.73
				C613.86,288.03,615.95,292.72,615.95,298.27z M606.39,298.27c0-3.16-1.11-5.86-3.33-8.11c-2.22-2.25-4.92-3.38-8.1-3.38
				c-3.16,0-5.86,1.13-8.1,3.39c-2.24,2.26-3.36,4.96-3.36,8.1c0,3.2,1.12,5.93,3.36,8.19c2.24,2.26,4.94,3.39,8.1,3.39
				c3.2,0,5.9-1.13,8.11-3.39C605.28,304.2,606.39,301.47,606.39,298.27z"/>
			<path class="st0" d="M629.34,317.02h-9.19v-37.44h9.19v5.74h0.13c2.34-4.57,5.95-6.85,10.86-6.85c4.31,0,7.82,1.48,10.51,4.43
				c2.69,2.96,4.04,6.78,4.04,11.47v22.63h-9.19v-21.97c0-2.29-0.8-4.25-2.4-5.86c-1.6-1.61-3.51-2.41-5.74-2.41
				c-2.29,0-4.24,0.8-5.82,2.41c-1.59,1.61-2.38,3.56-2.38,5.86V317.02z"/>
			<path class="st0" d="M699.59,298.27c0,1.24-0.17,2.62-0.51,4.14h-30.14c0.65,2.23,1.98,4.07,3.98,5.52
				c2,1.45,4.19,2.18,6.57,2.18c2.1,0,4.13-0.51,6.08-1.52c1.95-1.01,3.39-2.31,4.34-3.91l6.25,5.49c-1.89,2.46-4.3,4.4-7.23,5.82
				c-2.93,1.42-6.07,2.13-9.44,2.13c-5.68,0-10.51-1.91-14.47-5.73c-3.97-3.82-5.95-8.53-5.95-14.13c0-5.6,1.98-10.29,5.95-14.09
				c3.97-3.8,8.79-5.7,14.47-5.7c5.56,0,10.29,1.92,14.22,5.76C697.62,288.08,699.59,292.76,699.59,298.27z M669,294.64h20.77
				c-0.57-2.42-1.8-4.4-3.69-5.95c-1.89-1.55-4.09-2.32-6.6-2.32c-2.46,0-4.68,0.78-6.66,2.35
				C670.84,290.29,669.57,292.26,669,294.64z"/>
			<path class="st0" d="M712.95,317.02h-9.19v-37.44h9.19v5.74h0.13c2.34-4.57,5.95-6.85,10.86-6.85c4.31,0,7.82,1.48,10.51,4.43
				c2.69,2.96,4.04,6.78,4.04,11.47v22.63h-9.19v-21.97c0-2.29-0.8-4.25-2.4-5.86c-1.6-1.61-3.51-2.41-5.74-2.41
				c-2.29,0-4.24,0.8-5.82,2.41c-1.59,1.61-2.38,3.56-2.38,5.86V317.02z"/>
			<path class="st0" d="M741.68,287.1v-7.51h3.44v-8.46h9.19v8.46h6.38v7.51h-6.38v20.04c0,0.78,0.31,1.45,0.93,2
				c0.62,0.56,1.34,0.84,2.16,0.84c1.07,0,1.87-0.18,2.4-0.54l1.8,7.26c-1.85,0.95-4.11,1.42-6.79,1.42c-2.88,0-5.22-0.92-7.01-2.75
				c-1.79-1.83-2.68-4.22-2.68-7.17V287.1H741.68z"/>
			<path class="st0" d="M778.78,309.98c2.02,0.13,3.66-0.16,4.91-0.85c1.25-0.69,1.88-1.62,1.88-2.78c0-1.07-0.4-1.94-1.2-2.59
				c-0.8-0.65-1.85-1.1-3.14-1.36c-1.29-0.25-2.71-0.48-4.26-0.68c-1.55-0.2-3.1-0.5-4.66-0.9c-1.56-0.4-2.98-0.97-4.28-1.7
				c-1.29-0.74-2.34-1.88-3.14-3.44c-0.8-1.56-1.2-3.47-1.2-5.74c0-3.58,1.37-6.39,4.12-8.44c2.75-2.05,6.4-3.08,10.97-3.08
				c5.64,0,10.62,1.47,14.93,4.42l-4.01,6.91c-2.76-2.1-6.4-3.17-10.92-3.19c-3.83,0-5.76,1.13-5.78,3.38c0,1.07,0.41,1.9,1.23,2.48
				c0.82,0.58,1.87,0.99,3.14,1.23c1.27,0.24,2.7,0.45,4.28,0.62c1.58,0.17,3.15,0.47,4.72,0.9c1.57,0.43,2.99,1.03,4.26,1.78
				c1.27,0.76,2.32,1.93,3.14,3.52c0.82,1.59,1.23,3.55,1.23,5.89c0,3.7-1.55,6.59-4.66,8.66c-3.1,2.07-6.96,3.11-11.57,3.11
				c-6.08,0-11.36-1.46-15.85-4.39l4.45-7.32C770.25,308.54,774.05,309.73,778.78,309.98z"/>
		</g>
	</g>
</g>
</svg>
